<svg xmlns="http://www.w3.org/2000/svg" xmlns:xlink="http://www.w3.org/1999/xlink" xmlns:lucid="lucid" width="3202.5" height="516.3"><g transform="translate(-1226.7401041666662 -1637.4375)" lucid:page-tab-id="0_0"><path d="M1000 1500h3500v1000H1000z" fill="#f2f3f5"/><path d="M2145.03 2047.53l-4.96.1-6.64.42-6 .62-5.48.8-5.1 1-4.8 1.1-4.6 1.3-4.48 1.45-4.43 1.65-4.53 1.9-4.77 2.26-5.42 2.83-7.3 4.24-25.25 15.42-5.4 2.84-4.8 2.26-4.52 1.9-4.44 1.65-4.48 1.45-4.6 1.28-4.8 1.13-5.1.97-5.5.8-6 .64-6.63.4-4.97.12" stroke="#ba23f6" stroke-width="5" stroke-linejoin="round" fill="none"/><path d="M2147.53 2049.95l-2.5.06-.12-4.94 2.63-.06zM1990.1 2100.58h-2.57v-4.95h2.57z" stroke="#ba23f6" stroke-width=".05" fill="#ba23f6"/><path d="M4106.18 1834.64h282.42v71.26h-282.42z" fill="none"/><use xlink:href="#a" transform="matrix(1,0,0,1,4126.181145833333,1857.6425) translate(0 25.114583333333336)"/><use xlink:href="#b" transform="matrix(1,0,0,1,4126.181145833333,1857.6425) translate(91.35416666666667 25.114583333333336)"/><path d="M3583.58 1986.53h260.04v71.26h-260.04z" fill="none"/><use xlink:href="#c" transform="matrix(1,0,0,1,3603.58,2009.5325000000003) translate(0 25.114583333333336)"/><use xlink:href="#d" transform="matrix(1,0,0,1,3603.58,2009.5325000000003) translate(130.7421875 25.114583333333336)"/><path d="M4106.18 1733.38h303.06v71.26h-303.06z" fill="none"/><use xlink:href="#e" transform="matrix(1,0,0,1,4126.181145833333,1756.3825000000002) translate(0 25.114583333333336)"/><use xlink:href="#f" transform="matrix(1,0,0,1,4126.181145833333,1756.3825000000002) translate(90.22135416666667 25.114583333333336)"/><path d="M1570.6 1961.22h416.93v71.26H1570.6z" fill="none"/><use xlink:href="#g" transform="matrix(1,0,0,1,1590.6072916666662,1984.2175000000002) translate(0 25.114583333333336)"/><use xlink:href="#h" transform="matrix(1,0,0,1,1590.6072916666662,1984.2175000000002) translate(146.65364583333334 25.114583333333336)"/><use xlink:href="#i" transform="matrix(1,0,0,1,1590.6072916666662,1984.2175000000002) translate(227.68229166666669 25.114583333333336)"/><path d="M3583.58 1885.27h309.18v71.26h-309.18z" fill="none"/><use xlink:href="#j" transform="matrix(1,0,0,1,3603.58,1908.2725) translate(0 25.114583333333336)"/><use xlink:href="#k" transform="matrix(1,0,0,1,3603.58,1908.2725) translate(141.69270833333334 25.114583333333336)"/><path d="M2147.53 2011.85h331.04v71.26h-331.04z" fill="none"/><use xlink:href="#l" transform="matrix(1,0,0,1,2167.5313541666665,2034.8474999999999) translate(0 25.114583333333336)"/><use xlink:href="#m" transform="matrix(1,0,0,1,2167.5313541666665,2034.8474999999999) translate(186.65364583333334 25.114583333333336)"/><path d="M1246.74 2062.48h740.8v71.26h-740.8z" fill="none"/><use xlink:href="#n" transform="matrix(1,0,0,1,1266.7401041666662,2085.4775) translate(0 25.114583333333336)"/><use xlink:href="#o" transform="matrix(1,0,0,1,1266.7401041666662,2085.4775) translate(166.91406249999997 25.114583333333336)"/><use xlink:href="#p" transform="matrix(1,0,0,1,1266.7401041666662,2085.4775) translate(306.27604166666663 25.114583333333336)"/><use xlink:href="#q" transform="matrix(1,0,0,1,1266.7401041666662,2085.4775) translate(339.98697916666663 25.114583333333336)"/><use xlink:href="#r" transform="matrix(1,0,0,1,1266.7401041666662,2085.4775) translate(418.6067708333333 25.114583333333336)"/><use xlink:href="#s" transform="matrix(1,0,0,1,1266.7401041666662,2085.4775) translate(558.1770833333333 25.114583333333336)"/><path d="M1458.82 1758.7h497.53v71.26h-497.53z" fill="none"/><use xlink:href="#t" transform="matrix(1,0,0,1,1478.8234374999997,1781.6975000000002) translate(0 25.114583333333336)"/><use xlink:href="#u" transform="matrix(1,0,0,1,1478.8234374999997,1781.6975000000002) translate(119.64843750000001 25.114583333333336)"/><use xlink:href="#v" transform="matrix(1,0,0,1,1478.8234374999997,1781.6975000000002) translate(283.5416666666667 25.114583333333336)"/><use xlink:href="#w" transform="matrix(1,0,0,1,1478.8234374999997,1781.6975000000002) translate(320.7421875 25.114583333333336)"/><path d="M3426.08 1920.95l1.35.03 3.62.23 3.44.37 3.27.48 3.14.6 3.05.72 2.94.82 2.87.92 2.83 1.05 2.8 1.18 2.77 1.3 2.78 1.46 2.8 1.63 2.86 1.82 2.95 2.04 3.06 2.3 3.25 2.7 3.5 3.14 3.9 3.84 4.67 4.97 6.5 7.56 24.82 30.4 4.66 4.98 3.9 3.84 3.5 3.15 3.25 2.68 3.06 2.33 2.95 2.04 2.85 1.8 2.8 1.63 2.8 1.46 2.77 1.32 2.8 1.17 2.82 1.04 2.87.94 2.94.82 3.05.7 3.14.6 3.27.5 3.44.36 3.63.22 1.35.03" stroke="#d916a8" stroke-width="5" stroke-linejoin="round" fill="none"/><path d="M3426.2 1918.48l-.1 4.95-2.52-.05v-4.95zM3583.58 2019.7v4.94h-2.56v-4.95z" stroke="#d916a8" stroke-width=".05" fill="#d916a8"/><path d="M3583.58 1784h362.6v71.27h-362.6z" fill="none"/><use xlink:href="#x" transform="matrix(1,0,0,1,3603.58,1807.0125000000003) translate(0 25.114583333333336)"/><use xlink:href="#y" transform="matrix(1,0,0,1,3603.58,1807.0125000000003) translate(165.29947916666666 25.114583333333336)"/><path d="M1454.98 1859.96h501.37v71.26h-501.37z" fill="none"/><use xlink:href="#z" transform="matrix(1,0,0,1,1474.9822916666662,1882.9575) translate(0 25.114583333333336)"/><use xlink:href="#p" transform="matrix(1,0,0,1,1474.9822916666662,1882.9575) translate(106.35416666666666 25.114583333333336)"/><use xlink:href="#A" transform="matrix(1,0,0,1,1474.9822916666662,1882.9575) translate(140.06510416666666 25.114583333333336)"/><use xlink:href="#B" transform="matrix(1,0,0,1,1474.9822916666662,1882.9575) translate(236.88802083333331 25.114583333333336)"/><use xlink:href="#C" transform="matrix(1,0,0,1,1474.9822916666662,1882.9575) translate(348.46354166666663 25.114583333333336)"/><path d="M1614.98 1657.44h341.37v71.26h-341.37z" fill="none"/><use xlink:href="#D" transform="matrix(1,0,0,1,1634.9822916666662,1680.4375) translate(0 25.114583333333336)"/><use xlink:href="#E" transform="matrix(1,0,0,1,1634.9822916666662,1680.4375) translate(196.38020833333334 25.114583333333336)"/><path d="M2116.35 1758.7h362.22v71.26h-362.22z" fill="none"/><use xlink:href="#l" transform="matrix(1,0,0,1,2136.346458333333,1781.6975000000002) translate(0 25.114583333333336)"/><use xlink:href="#F" transform="matrix(1,0,0,1,2136.346458333333,1781.6975000000002) translate(186.65364583333334 25.114583333333336)"/><path d="M3038.57 1885.27h385v71.26h-385z" fill="none"/><use xlink:href="#G" transform="matrix(1,0,0,1,3058.5699999999997,1908.2725) translate(0 25.114583333333336)"/><use xlink:href="#H" transform="matrix(1,0,0,1,3058.5699999999997,1908.2725) translate(201.54947916666669 25.114583333333336)"/><path d="M2638.57 1920.9a40 40 0 0 1 40-40h160a40 40 0 0 1 40 40 40 40 0 0 1-40 40h-160a40 40 0 0 1-40-40z" fill="#fff"/><use xlink:href="#I" transform="matrix(1,0,0,1,2638.5699999999997,1880.9025000000004) translate(43.7109375 49.114583333333336)"/><path d="M3948.68 1819.7l4.96.1 6.64.4 6 .64 5.48.8 5.1.98 4.8 1.13 4.6 1.28 4.48 1.45 4.44 1.65 4.52 1.9 4.8 2.26 5.4 2.83 7.32 4.24 25.24 15.42 5.42 2.83 4.78 2.25 4.53 1.9 4.42 1.65 4.47 1.45 4.6 1.3 4.8 1.1 5.1 1 5.5.8 5.98.62 6.64.42 4.96.1" stroke="#d916a8" stroke-width="5" stroke-linejoin="round" fill="none"/><path d="M3948.8 1817.22l-.1 4.95-2.52-.05v-4.95zM4106.18 1867.8v4.95h-2.56v-4.95z" stroke="#d916a8" stroke-width=".05" fill="#d916a8"/><path d="M2113.84 1794.38l-1.34.03-3.63.23-3.43.36-3.28.48-3.14.6-3.04.7-2.95.83-2.88.95-2.82 1.05-2.8 1.17-2.77 1.3-2.78 1.47-2.8 1.62-2.87 1.8-2.93 2.05-3.05 2.34-3.24 2.68-3.5 3.15-3.9 3.84-4.67 4.98-6.5 7.55-24.8 30.4-4.67 4.98-3.92 3.84-3.5 3.16-3.22 2.68-3.06 2.32-2.94 2.04-2.86 1.82-2.8 1.62-2.8 1.45-2.76 1.3-2.8 1.2-2.82 1.04-2.88.93-2.95.82-3.02.72-3.15.6-3.27.48-3.44.36-3.62.23-1.35.04" stroke="#635dff" stroke-width="5" stroke-linejoin="round" fill="none"/><path d="M2116.35 1796.8l-2.52.06-.1-4.95 2.62-.05zM1958.9 1898.06h-2.55v-4.95h2.56z" stroke="#635dff" stroke-width=".05" fill="#635dff"/><path d="M2881.07 1920.9h155" stroke="#d916a8" stroke-width="5" stroke-linejoin="round" fill="none"/><path d="M2881.14 1923.38h-2.76l.2-2.48-.2-2.47h2.76zM3038.57 1923.38H3036v-4.95h2.57z" stroke="#d916a8" stroke-width=".05" fill="#d916a8"/><path d="M2145.03 2047.43l-4.96-.1-6.64-.42-6-.62-5.48-.8-5.1-.98-4.8-1.13-4.6-1.28-4.48-1.46-4.43-1.65-4.53-1.9-4.77-2.27-5.42-2.84-7.3-4.25-25.25-15.42-5.4-2.84-4.8-2.26-4.52-1.9-4.44-1.65-4.48-1.47-4.6-1.28-4.8-1.12-5.1-.98-5.5-.8-6-.63-6.63-.42-4.97-.1" stroke="#ba23f6" stroke-width="5" stroke-linejoin="round" fill="none"/><path d="M2147.53 2045v4.95l-2.62-.05.12-4.95zM1990.1 1994.37v4.95h-2.57v-4.95z" stroke="#ba23f6" stroke-width=".05" fill="#ba23f6"/><path d="M3426.08 1920.9h155" stroke="#d916a8" stroke-width="5" stroke-linejoin="round" fill="none"/><path d="M3426.15 1923.38h-2.57v-4.95h2.57zM3583.58 1923.38h-2.56v-4.95h2.56z" stroke="#d916a8" stroke-width=".05" fill="#d916a8"/><path d="M2113.84 1794.33h-155" stroke="#635dff" stroke-width="5" stroke-linejoin="round" fill="none"/><path d="M2116.35 1796.8h-2.57v-4.95h2.57zM1958.9 1796.8h-2.55v-4.95h2.56z" stroke="#635dff" stroke-width=".05" fill="#635dff"/><path d="M3948.68 1819.6l4.96-.1 6.64-.43 6-.62 5.48-.8 5.1-1 4.8-1.1 4.6-1.3 4.48-1.45 4.44-1.65 4.52-1.9 4.8-2.26 5.4-2.84 7.32-4.24 25.24-15.42 5.42-2.84 4.78-2.26 4.53-1.9 4.42-1.65 4.47-1.45 4.6-1.28 4.8-1.13 5.1-.98 5.5-.8 5.98-.64 6.64-.4 4.96-.12" stroke="#d916a8" stroke-width="5" stroke-linejoin="round" fill="none"/><path d="M3948.8 1822.06l-2.62.06v-4.95l2.52-.06zM4106.18 1771.5h-2.56v-4.96h2.56z" stroke="#d916a8" stroke-width=".05" fill="#d916a8"/><path d="M2636.07 1920.95l-.6.02-2.95.18-2.83.3-2.74.4-2.64.5-2.58.6-2.5.7-2.48.8-2.44.92-2.42 1.02-2.42 1.13-2.42 1.26-2.44 1.4-2.48 1.58-2.53 1.76-2.6 1.98-2.7 2.24-2.85 2.56-3.03 2.97-3.28 3.5-3.65 4.22-4.25 5.36-5.4 7.46-10.6 16.1-15.95 24.6-5.4 7.46-4.25 5.36-3.65 4.24-3.28 3.5-3.03 2.96-2.85 2.56-2.7 2.24-2.62 1.98-2.53 1.76-2.48 1.58-2.44 1.4-2.42 1.27-2.42 1.14-2.42 1-2.44.92-2.47.8-2.5.7-2.58.6-2.64.5-2.73.4-2.83.3-2.95.2h-.6" stroke="#ba23f6" stroke-width="5" stroke-linejoin="round" fill="none"/><path d="M2638.57 1920.9l.2 2.47-2.7.06-.12-4.95 2.82-.06zM2481.13 2049.95h-2.56V2045h2.56z" stroke="#ba23f6" stroke-width=".05" fill="#ba23f6"/><path d="M3426.08 1920.85l1.35-.03 3.62-.22 3.44-.37 3.27-.48 3.14-.6 3.05-.7 2.94-.83 2.87-.94 2.83-1.05 2.8-1.17 2.77-1.3 2.78-1.47 2.8-1.63 2.86-1.8 2.95-2.05 3.06-2.33 3.25-2.7 3.5-3.14 3.9-3.84 4.67-4.97 6.5-7.55 24.82-30.4 4.66-4.98 3.9-3.84 3.5-3.15 3.25-2.68 3.06-2.32 2.95-2.04 2.85-1.83 2.8-1.62 2.8-1.45 2.77-1.3 2.8-1.2 2.82-1.04 2.87-.93 2.94-.82 3.05-.7 3.14-.6 3.27-.5 3.44-.35 3.63-.23 1.35-.03" stroke="#d916a8" stroke-width="5" stroke-linejoin="round" fill="none"/><path d="M3426.2 1923.32l-2.62.06v-4.95l2.5-.06zM3583.58 1822.12h-2.56v-4.95h2.56z" stroke="#d916a8" stroke-width=".05" fill="#d916a8"/><path d="M2636.07 1920.85h-.6l-2.95-.2-2.83-.3-2.74-.4-2.64-.5-2.58-.6-2.5-.7-2.48-.8-2.44-.92-2.42-1.02-2.42-1.12-2.42-1.27-2.44-1.4-2.48-1.57-2.53-1.76-2.6-1.98-2.7-2.26-2.85-2.56-3.03-2.96-3.28-3.5-3.65-4.23-4.25-5.38-5.4-7.46-10.6-16.1-15.95-24.6-5.4-7.45-4.25-5.36-3.65-4.23-3.28-3.5-3.03-2.95-2.85-2.56-2.7-2.26-2.62-1.98-2.53-1.76-2.48-1.57-2.44-1.4-2.42-1.28-2.42-1.13-2.42-1.02-2.44-.9-2.47-.8-2.5-.72-2.58-.6-2.64-.5-2.73-.4-2.83-.3-2.95-.2h-.6" stroke="#635dff" stroke-width="5" stroke-linejoin="round" fill="none"/><path d="M2638.76 1918.43l-.2 2.47.2 2.48-2.8-.06.1-4.94zM2481.13 1791.85v4.95h-2.56v-4.95z" stroke="#635dff" stroke-width=".05" fill="#635dff"/><path d="M2113.84 1794.28l-1.34-.03-3.63-.23-3.43-.36-3.28-.48-3.14-.6-3.04-.72-2.95-.82-2.88-.93-2.82-1.04-2.8-1.18-2.77-1.3-2.78-1.46-2.8-1.62-2.87-1.82-2.93-2.04-3.05-2.32-3.24-2.68-3.5-3.16-3.9-3.83-4.67-4.97-6.5-7.56-24.8-30.4-4.67-4.97-3.92-3.84-3.5-3.14-3.22-2.68-3.06-2.33-2.94-2.04-2.86-1.8-2.8-1.63-2.8-1.45-2.76-1.3-2.8-1.18-2.82-1.05-2.88-.95-2.95-.82-3.02-.7-3.15-.6-3.27-.5-3.44-.36-3.62-.22-1.35-.03" stroke="#635dff" stroke-width="5" stroke-linejoin="round" fill="none"/><path d="M2116.35 1791.85v4.95l-2.62-.05.1-4.95zM1958.9 1690.6v4.94h-2.55v-4.95z" stroke="#635dff" stroke-width=".05" fill="#635dff"/><path d="M2145.03 2047.53l-4.96.1-6.64.42-6 .62-5.48.8-5.1 1-4.8 1.1-4.6 1.3-4.48 1.45-4.43 1.65-4.53 1.9-4.77 2.26-5.42 2.83-7.3 4.24-25.25 15.42-5.4 2.84-4.8 2.26-4.52 1.9-4.44 1.65-4.48 1.45-4.6 1.28-4.8 1.13-5.1.97-5.5.8-6 .64-6.63.4-4.97.12" stroke="#ba23f6" stroke-width="5" stroke-linejoin="round" fill="none"/><path d="M2147.53 2049.95l-2.5.06-.12-4.94 2.63-.06zM1990.1 2100.58h-2.57v-4.95h2.57z" stroke="#ba23f6" stroke-width=".05" fill="#ba23f6"/><path d="M4106.18 1834.64h282.42v71.26h-282.42z" fill="none"/><use xlink:href="#a" transform="matrix(1,0,0,1,4126.181145833333,1857.6425) translate(0 25.114583333333336)"/><use xlink:href="#b" transform="matrix(1,0,0,1,4126.181145833333,1857.6425) translate(91.35416666666667 25.114583333333336)"/><path d="M3583.58 1986.53h260.04v71.26h-260.04z" fill="none"/><use xlink:href="#c" transform="matrix(1,0,0,1,3603.58,2009.5325000000003) translate(0 25.114583333333336)"/><use xlink:href="#d" transform="matrix(1,0,0,1,3603.58,2009.5325000000003) translate(130.7421875 25.114583333333336)"/><path d="M4106.18 1733.38h303.06v71.26h-303.06z" fill="none"/><use xlink:href="#e" transform="matrix(1,0,0,1,4126.181145833333,1756.3825000000002) translate(0 25.114583333333336)"/><use xlink:href="#f" transform="matrix(1,0,0,1,4126.181145833333,1756.3825000000002) translate(90.22135416666667 25.114583333333336)"/><path d="M1570.6 1961.22h416.93v71.26H1570.6z" fill="none"/><use xlink:href="#g" transform="matrix(1,0,0,1,1590.6072916666662,1984.2175000000002) translate(0 25.114583333333336)"/><use xlink:href="#h" transform="matrix(1,0,0,1,1590.6072916666662,1984.2175000000002) translate(146.65364583333334 25.114583333333336)"/><use xlink:href="#i" transform="matrix(1,0,0,1,1590.6072916666662,1984.2175000000002) translate(227.68229166666669 25.114583333333336)"/><path d="M3583.58 1885.27h309.18v71.26h-309.18z" fill="none"/><use xlink:href="#j" transform="matrix(1,0,0,1,3603.58,1908.2725) translate(0 25.114583333333336)"/><use xlink:href="#k" transform="matrix(1,0,0,1,3603.58,1908.2725) translate(141.69270833333334 25.114583333333336)"/><path d="M2147.53 2011.85h331.04v71.26h-331.04z" fill="none"/><use xlink:href="#l" transform="matrix(1,0,0,1,2167.5313541666665,2034.8474999999999) translate(0 25.114583333333336)"/><use xlink:href="#m" transform="matrix(1,0,0,1,2167.5313541666665,2034.8474999999999) translate(186.65364583333334 25.114583333333336)"/><path d="M1246.74 2062.48h740.8v71.26h-740.8z" fill="none"/><use xlink:href="#n" transform="matrix(1,0,0,1,1266.7401041666662,2085.4775) translate(0 25.114583333333336)"/><use xlink:href="#o" transform="matrix(1,0,0,1,1266.7401041666662,2085.4775) translate(166.91406249999997 25.114583333333336)"/><use xlink:href="#p" transform="matrix(1,0,0,1,1266.7401041666662,2085.4775) translate(306.27604166666663 25.114583333333336)"/><use xlink:href="#q" transform="matrix(1,0,0,1,1266.7401041666662,2085.4775) translate(339.98697916666663 25.114583333333336)"/><use xlink:href="#r" transform="matrix(1,0,0,1,1266.7401041666662,2085.4775) translate(418.6067708333333 25.114583333333336)"/><use xlink:href="#s" transform="matrix(1,0,0,1,1266.7401041666662,2085.4775) translate(558.1770833333333 25.114583333333336)"/><path d="M1458.82 1758.7h497.53v71.26h-497.53z" fill="none"/><use xlink:href="#t" transform="matrix(1,0,0,1,1478.8234374999997,1781.6975000000002) translate(0 25.114583333333336)"/><use xlink:href="#u" transform="matrix(1,0,0,1,1478.8234374999997,1781.6975000000002) translate(119.64843750000001 25.114583333333336)"/><use xlink:href="#v" transform="matrix(1,0,0,1,1478.8234374999997,1781.6975000000002) translate(283.5416666666667 25.114583333333336)"/><use xlink:href="#w" transform="matrix(1,0,0,1,1478.8234374999997,1781.6975000000002) translate(320.7421875 25.114583333333336)"/><path d="M3426.08 1920.95l1.35.03 3.62.23 3.44.37 3.27.48 3.14.6 3.05.72 2.94.82 2.87.92 2.83 1.05 2.8 1.18 2.77 1.3 2.78 1.46 2.8 1.63 2.86 1.82 2.95 2.04 3.06 2.3 3.25 2.7 3.5 3.14 3.9 3.84 4.67 4.97 6.5 7.56 24.82 30.4 4.66 4.98 3.9 3.84 3.5 3.15 3.25 2.68 3.06 2.33 2.95 2.04 2.85 1.8 2.8 1.63 2.8 1.46 2.77 1.32 2.8 1.17 2.82 1.04 2.87.94 2.94.82 3.05.7 3.14.6 3.27.5 3.44.36 3.63.22 1.35.03" stroke="#d916a8" stroke-width="5" stroke-linejoin="round" fill="none"/><path d="M3426.2 1918.48l-.1 4.95-2.52-.05v-4.95zM3583.58 2019.7v4.94h-2.56v-4.95z" stroke="#d916a8" stroke-width=".05" fill="#d916a8"/><path d="M3583.58 1784h362.6v71.27h-362.6z" fill="none"/><use xlink:href="#x" transform="matrix(1,0,0,1,3603.58,1807.0125000000003) translate(0 25.114583333333336)"/><use xlink:href="#y" transform="matrix(1,0,0,1,3603.58,1807.0125000000003) translate(165.29947916666666 25.114583333333336)"/><path d="M1454.98 1859.96h501.37v71.26h-501.37z" fill="none"/><use xlink:href="#z" transform="matrix(1,0,0,1,1474.9822916666662,1882.9575) translate(0 25.114583333333336)"/><use xlink:href="#p" transform="matrix(1,0,0,1,1474.9822916666662,1882.9575) translate(106.35416666666666 25.114583333333336)"/><use xlink:href="#A" transform="matrix(1,0,0,1,1474.9822916666662,1882.9575) translate(140.06510416666666 25.114583333333336)"/><use xlink:href="#B" transform="matrix(1,0,0,1,1474.9822916666662,1882.9575) translate(236.88802083333331 25.114583333333336)"/><use xlink:href="#C" transform="matrix(1,0,0,1,1474.9822916666662,1882.9575) translate(348.46354166666663 25.114583333333336)"/><path d="M1614.98 1657.44h341.37v71.26h-341.37z" fill="none"/><g><use xlink:href="#D" transform="matrix(1,0,0,1,1634.9822916666662,1680.4375) translate(0 25.114583333333336)"/><use xlink:href="#E" transform="matrix(1,0,0,1,1634.9822916666662,1680.4375) translate(196.38020833333334 25.114583333333336)"/></g><path d="M2116.35 1758.7h362.22v71.26h-362.22z" fill="none"/><g><use xlink:href="#l" transform="matrix(1,0,0,1,2136.346458333333,1781.6975000000002) translate(0 25.114583333333336)"/><use xlink:href="#F" transform="matrix(1,0,0,1,2136.346458333333,1781.6975000000002) translate(186.65364583333334 25.114583333333336)"/></g><path d="M3038.57 1885.27h385v71.26h-385z" fill="none"/><g><use xlink:href="#G" transform="matrix(1,0,0,1,3058.5699999999997,1908.2725) translate(0 25.114583333333336)"/><use xlink:href="#H" transform="matrix(1,0,0,1,3058.5699999999997,1908.2725) translate(201.54947916666669 25.114583333333336)"/></g><path d="M2638.57 1920.9a40 40 0 0 1 40-40h160a40 40 0 0 1 40 40 40 40 0 0 1-40 40h-160a40 40 0 0 1-40-40z" fill="#fff"/><g><use xlink:href="#I" transform="matrix(1,0,0,1,2638.5699999999997,1880.9025000000004) translate(43.7109375 49.114583333333336)"/></g><path d="M3948.68 1819.7l4.96.1 6.64.4 6 .64 5.48.8 5.1.98 4.8 1.13 4.6 1.28 4.48 1.45 4.44 1.65 4.52 1.9 4.8 2.26 5.4 2.83 7.32 4.24 25.24 15.42 5.42 2.83 4.78 2.25 4.53 1.9 4.42 1.65 4.47 1.45 4.6 1.3 4.8 1.1 5.1 1 5.5.8 5.98.62 6.64.42 4.96.1" stroke="#d916a8" stroke-width="5" stroke-linejoin="round" fill="none"/><path d="M3948.8 1817.22l-.1 4.95-2.52-.05v-4.95zM4106.18 1867.8v4.95h-2.56v-4.95z" stroke="#d916a8" stroke-width=".05" fill="#d916a8"/><path d="M2113.84 1794.38l-1.34.03-3.63.23-3.43.36-3.28.48-3.14.6-3.04.7-2.95.83-2.88.95-2.82 1.05-2.8 1.17-2.77 1.3-2.78 1.47-2.8 1.62-2.87 1.8-2.93 2.05-3.05 2.34-3.24 2.68-3.5 3.15-3.9 3.84-4.67 4.98-6.5 7.55-24.8 30.4-4.67 4.98-3.92 3.84-3.5 3.16-3.22 2.68-3.06 2.32-2.94 2.04-2.86 1.82-2.8 1.62-2.8 1.45-2.76 1.3-2.8 1.2-2.82 1.04-2.88.93-2.95.82-3.02.72-3.15.6-3.27.48-3.44.36-3.62.23-1.35.04" stroke="#635dff" stroke-width="5" stroke-linejoin="round" fill="none"/><path d="M2116.35 1796.8l-2.52.06-.1-4.95 2.62-.05zM1958.9 1898.06h-2.55v-4.95h2.56z" stroke="#635dff" stroke-width=".05" fill="#635dff"/><path d="M2881.07 1920.9h155" stroke="#d916a8" stroke-width="5" stroke-linejoin="round" fill="none"/><path d="M2881.14 1923.38h-2.76l.2-2.48-.2-2.47h2.76zM3038.57 1923.38H3036v-4.95h2.57z" stroke="#d916a8" stroke-width=".05" fill="#d916a8"/><path d="M2145.03 2047.43l-4.96-.1-6.64-.42-6-.62-5.48-.8-5.1-.98-4.8-1.13-4.6-1.28-4.48-1.46-4.43-1.65-4.53-1.9-4.77-2.27-5.42-2.84-7.3-4.25-25.25-15.42-5.4-2.84-4.8-2.26-4.52-1.9-4.44-1.65-4.48-1.47-4.6-1.28-4.8-1.12-5.1-.98-5.5-.8-6-.63-6.63-.42-4.97-.1" stroke="#ba23f6" stroke-width="5" stroke-linejoin="round" fill="none"/><path d="M2147.53 2045v4.95l-2.62-.05.12-4.95zM1990.1 1994.37v4.95h-2.57v-4.95z" stroke="#ba23f6" stroke-width=".05" fill="#ba23f6"/><path d="M3426.08 1920.9h155" stroke="#d916a8" stroke-width="5" stroke-linejoin="round" fill="none"/><path d="M3426.15 1923.38h-2.57v-4.95h2.57zM3583.58 1923.38h-2.56v-4.95h2.56z" stroke="#d916a8" stroke-width=".05" fill="#d916a8"/><path d="M2113.84 1794.33h-155" stroke="#635dff" stroke-width="5" stroke-linejoin="round" fill="none"/><path d="M2116.35 1796.8h-2.57v-4.95h2.57zM1958.9 1796.8h-2.55v-4.95h2.56z" stroke="#635dff" stroke-width=".05" fill="#635dff"/><path d="M3948.68 1819.6l4.96-.1 6.64-.43 6-.62 5.48-.8 5.1-1 4.8-1.1 4.6-1.3 4.48-1.45 4.44-1.65 4.52-1.9 4.8-2.26 5.4-2.84 7.32-4.24 25.24-15.42 5.42-2.84 4.78-2.26 4.53-1.9 4.42-1.65 4.47-1.45 4.6-1.28 4.8-1.13 5.1-.98 5.5-.8 5.98-.64 6.64-.4 4.96-.12" stroke="#d916a8" stroke-width="5" stroke-linejoin="round" fill="none"/><path d="M3948.8 1822.06l-2.62.06v-4.95l2.52-.06zM4106.18 1771.5h-2.56v-4.96h2.56z" stroke="#d916a8" stroke-width=".05" fill="#d916a8"/><path d="M2636.07 1920.95l-.6.02-2.95.18-2.83.3-2.74.4-2.64.5-2.58.6-2.5.7-2.48.8-2.44.92-2.42 1.02-2.42 1.13-2.42 1.26-2.44 1.4-2.48 1.58-2.53 1.76-2.6 1.98-2.7 2.24-2.85 2.56-3.03 2.97-3.28 3.5-3.65 4.22-4.25 5.36-5.4 7.46-10.6 16.1-15.95 24.6-5.4 7.46-4.25 5.36-3.65 4.24-3.28 3.5-3.03 2.96-2.85 2.56-2.7 2.24-2.62 1.98-2.53 1.76-2.48 1.58-2.44 1.4-2.42 1.27-2.42 1.14-2.42 1-2.44.92-2.47.8-2.5.7-2.58.6-2.64.5-2.73.4-2.83.3-2.95.2h-.6" stroke="#ba23f6" stroke-width="5" stroke-linejoin="round" fill="none"/><path d="M2638.57 1920.9l.2 2.47-2.7.06-.12-4.95 2.82-.06zM2481.13 2049.95h-2.56V2045h2.56z" stroke="#ba23f6" stroke-width=".05" fill="#ba23f6"/><path d="M3426.08 1920.85l1.35-.03 3.62-.22 3.44-.37 3.27-.48 3.14-.6 3.05-.7 2.94-.83 2.87-.94 2.83-1.05 2.8-1.17 2.77-1.3 2.78-1.47 2.8-1.63 2.86-1.8 2.95-2.05 3.06-2.33 3.25-2.7 3.5-3.14 3.9-3.84 4.67-4.97 6.5-7.55 24.82-30.4 4.66-4.98 3.9-3.84 3.5-3.15 3.25-2.68 3.06-2.32 2.95-2.04 2.85-1.83 2.8-1.62 2.8-1.45 2.77-1.3 2.8-1.2 2.82-1.04 2.87-.93 2.94-.82 3.05-.7 3.14-.6 3.27-.5 3.44-.35 3.63-.23 1.35-.03" stroke="#d916a8" stroke-width="5" stroke-linejoin="round" fill="none"/><path d="M3426.2 1923.32l-2.62.06v-4.95l2.5-.06zM3583.58 1822.12h-2.56v-4.95h2.56z" stroke="#d916a8" stroke-width=".05" fill="#d916a8"/><path d="M2636.07 1920.85h-.6l-2.95-.2-2.83-.3-2.74-.4-2.64-.5-2.58-.6-2.5-.7-2.48-.8-2.44-.92-2.42-1.02-2.42-1.12-2.42-1.27-2.44-1.4-2.48-1.57-2.53-1.76-2.6-1.98-2.7-2.26-2.85-2.56-3.03-2.96-3.28-3.5-3.65-4.23-4.25-5.38-5.4-7.46-10.6-16.1-15.95-24.6-5.4-7.45-4.25-5.36-3.65-4.23-3.28-3.5-3.03-2.95-2.85-2.56-2.7-2.26-2.62-1.98-2.53-1.76-2.48-1.57-2.44-1.4-2.42-1.28-2.42-1.13-2.42-1.02-2.44-.9-2.47-.8-2.5-.72-2.58-.6-2.64-.5-2.73-.4-2.83-.3-2.95-.2h-.6" stroke="#635dff" stroke-width="5" stroke-linejoin="round" fill="none"/><path d="M2638.76 1918.43l-.2 2.47.2 2.48-2.8-.06.1-4.94zM2481.13 1791.85v4.95h-2.56v-4.95z" stroke="#635dff" stroke-width=".05" fill="#635dff"/><path d="M2113.84 1794.28l-1.34-.03-3.63-.23-3.43-.36-3.28-.48-3.14-.6-3.04-.72-2.95-.82-2.88-.93-2.82-1.04-2.8-1.18-2.77-1.3-2.78-1.46-2.8-1.62-2.87-1.82-2.93-2.04-3.05-2.32-3.24-2.68-3.5-3.16-3.9-3.83-4.67-4.97-6.5-7.56-24.8-30.4-4.67-4.97-3.92-3.84-3.5-3.14-3.22-2.68-3.06-2.33-2.94-2.04-2.86-1.8-2.8-1.63-2.8-1.45-2.76-1.3-2.8-1.18-2.82-1.05-2.88-.95-2.95-.82-3.02-.7-3.15-.6-3.27-.5-3.44-.36-3.62-.22-1.35-.03" stroke="#635dff" stroke-width="5" stroke-linejoin="round" fill="none"/><path d="M2116.35 1791.85v4.95l-2.62-.05.1-4.95zM1958.9 1690.6v4.94h-2.55v-4.95z" stroke="#635dff" stroke-width=".05" fill="#635dff"/><defs><path fill="#111" d="M375 0H183v-1456h192V0" id="J"/><path fill="#111" d="M277-555c0 244 77 420 297 424 127 2 249-93 255-210h175C980-127 805 20 574 20 258 20 81-222 92-562c11-319 164-533 481-540 237-5 426 165 431 392H829c-7-133-115-242-256-240-209 4-296 166-296 395" id="K"/><path fill="#111" d="M944-932H581V0H396v-932H40v-150h904v150" id="L"/><path fill="#111" d="M584 20C278 26 81-227 91-551c10-320 175-545 491-551 308-5 503 247 494 573-9 322-175 543-492 549zm-2-970c-208 0-305 185-305 421 0 216 106 398 307 398 211 0 307-186 307-420 0-214-109-399-309-399" id="M"/><path fill="#111" d="M632-1102c291 0 422 251 422 573 0 297-141 548-419 549-131 0-235-42-310-125v521H140v-1498h169l9 120c75-93 180-140 314-140zm-53 971c207 0 290-180 290-419 0-218-92-395-292-395-112 0-196 50-252 149v517c55 99 140 148 254 148" id="N"/><path fill="#111" d="M341 0H156v-1082h185V0zm-91-1264c-68 0-108-42-109-105 0-62 41-107 109-107s110 44 110 107-42 105-110 105" id="O"/><path fill="#111" d="M104-752c0-211 183-330 408-330h455V0H781v-421H502L247 0H47l272-449c-125-44-215-146-215-303zm411-180c-125-3-224 66-225 182-1 108 86 177 197 177h294v-359H515" id="P"/><g id="a"><use transform="matrix(0.013020833333333334,0,0,0.013020833333333334,0,0)" xlink:href="#J"/><use transform="matrix(0.013020833333333334,0,0,0.013020833333333334,7.252604166666667,0)" xlink:href="#K"/><use transform="matrix(0.013020833333333334,0,0,0.013020833333333334,21.2109375,0)" xlink:href="#L"/><use transform="matrix(0.013020833333333334,0,0,0.013020833333333334,33.4765625,0)" xlink:href="#M"/><use transform="matrix(0.013020833333333334,0,0,0.013020833333333334,48.684895833333336,0)" xlink:href="#N"/><use transform="matrix(0.013020833333333334,0,0,0.013020833333333334,63.645833333333336,0)" xlink:href="#O"/><use transform="matrix(0.013020833333333334,0,0,0.013020833333333334,70.1171875,0)" xlink:href="#P"/></g><path fill="#111" d="M1025 0H840v-929H342V0H156v-1082h869V0" id="Q"/><path fill="#111" d="M599-131c141 0 220-65 285-146l113 88C906-50 770 20 589 20 281 21 93-214 93-545c0-223 93-397 233-485 74-48 154-72 240-72 300 2 449 218 445 537v77H278c0 197 129 357 321 357zm227-509c-3-180-88-310-260-310-170 0-264 140-282 310h542" id="R"/><path fill="#111" d="M763-245l368-837h231V0h-185v-787L827 0H699L342-804V0H157v-1082h240" id="S"/><path fill="#111" d="M331-1082v931h396v-931h185v931h395v-931h186v931h152l-18 472h-166V0H145v-1082h186" id="T"/><path fill="#111" d="M1024 0H839v-462H342V0H156v-1082h186v469h497v-469h185V0" id="U"/><path fill="#111" d="M1021-358C1021-135 848 0 615 0H157v-1082h185v373h281c230-1 398 128 398 351zm-186 7c0-123-84-208-211-207H342v407h275c132 2 218-72 218-200" id="V"/><g id="b"><use transform="matrix(0.013020833333333334,0,0,0.013020833333333334,0,0)" xlink:href="#Q"/><use transform="matrix(0.013020833333333334,0,0,0.013020833333333334,15.390625,0)" xlink:href="#R"/><use transform="matrix(0.013020833333333334,0,0,0.013020833333333334,29.518229166666668,0)" xlink:href="#N"/><use transform="matrix(0.013020833333333334,0,0,0.013020833333333334,44.47916666666667,0)" xlink:href="#R"/><use transform="matrix(0.013020833333333334,0,0,0.013020833333333334,58.60677083333335,0)" xlink:href="#S"/><use transform="matrix(0.013020833333333334,0,0,0.013020833333333334,78.38541666666669,0)" xlink:href="#O"/><use transform="matrix(0.013020833333333334,0,0,0.013020833333333334,84.85677083333336,0)" xlink:href="#T"/><use transform="matrix(0.013020833333333334,0,0,0.013020833333333334,107.07031250000003,0)" xlink:href="#R"/><use transform="matrix(0.013020833333333334,0,0,0.013020833333333334,121.1979166666667,0)" xlink:href="#U"/><use transform="matrix(0.013020833333333334,0,0,0.013020833333333334,136.57552083333337,0)" xlink:href="#V"/></g><path d="M620-821c178-2 296-76 296-244 0-169-138-253-322-253-154 0-303 100-301 245H101c11-265 221-398 493-403 299-5 514 134 514 414 0 159-109 262-235 315 171 57 257 171 257 341 0 279-240 433-536 426C305 13 87-117 80-404h192c-2 160 152 268 322 268 188 0 344-92 344-266 0-171-106-258-317-261H441v-158h179" id="W"/><path d="M561-1102c238-4 403 126 403 351v498c0 99 13 178 38 237V0H808c-11-21-19-59-26-114C696-25 593 20 474 20c-199 0-368-130-365-320 4-251 214-359 490-356h180v-85c-1-135-86-212-229-212-115 0-232 67-233 171H131c20-205 206-316 430-320zM294-326c0 117 90 185 207 185 122 0 239-75 278-162v-222H634c-227 0-340 66-340 199" id="X"/><path d="M763-245l368-837h231V0h-185v-787L827 0H699L342-804V0H157v-1082h240" id="Y"/><path d="M584 20C278 26 81-227 91-551c10-320 175-545 491-551 308-5 503 247 494 573-9 322-175 543-492 549zm-2-970c-208 0-305 185-305 421 0 216 106 398 307 398 211 0 307-186 307-420 0-214-109-399-309-399" id="Z"/><path d="M1065-307C1065-87 885 0 646 0H157v-1082c368 12 869-81 869 297 0 119-78 193-178 228 117 26 217 115 217 250zM648-149c136 1 231-44 231-164 0-108-79-162-238-162H342v326h306zM342-623h239c173 0 260-51 260-152s-82-157-246-157H342v309" id="aa"/><path d="M840-1082h185V0H840v-789L341 0H156v-1082h185v790" id="ab"/><path d="M944-932H581V0H396v-932H40v-150h904v150" id="ac"/><g id="c"><use transform="matrix(0.013020833333333334,0,0,0.013020833333333334,0,0)" xlink:href="#W"/><use transform="matrix(0.013020833333333334,0,0,0.013020833333333334,15.8203125,0)" xlink:href="#X"/><use transform="matrix(0.013020833333333334,0,0,0.013020833333333334,30.325520833333336,0)" xlink:href="#Y"/><use transform="matrix(0.013020833333333334,0,0,0.013020833333333334,50.10416666666667,0)" xlink:href="#Z"/><use transform="matrix(0.013020833333333334,0,0,0.013020833333333334,65.3125,0)" xlink:href="#aa"/><use transform="matrix(0.013020833333333334,0,0,0.013020833333333334,80.546875,0)" xlink:href="#ab"/><use transform="matrix(0.013020833333333334,0,0,0.013020833333333334,95.9375,0)" xlink:href="#ac"/><use transform="matrix(0.013020833333333334,0,0,0.013020833333333334,108.75,0)" xlink:href="#ab"/></g><path d="M477-461H342V0H156v-1082h186v458h121l364-458h224L623-562 1087 0H852" id="ad"/><path d="M494-271l252-811h198L509 167C425 381 299 474 84 421V271c167 16 242-37 283-173l41-110L22-1082h202" id="ae"/><path d="M632-1102c291 0 422 251 422 573 0 297-141 548-419 549-131 0-235-42-310-125v521H140v-1498h169l9 120c75-93 180-140 314-140zm-53 971c207 0 290-180 290-419 0-218-92-395-292-395-112 0-196 50-252 149v517c55 99 140 148 254 148" id="af"/><path d="M253-1536c2 169-14 319-21 479H103l1-479h149" id="ag"/><path d="M290-464c10 194 103 330 294 333 127 2 249-93 255-210h176C991-127 815 17 584 20 267 25 92-222 103-562c10-319 164-534 481-540 237-5 426 165 431 392H839c-6-133-115-242-255-240-188 2-284 144-294 334h404v152H290" id="ah"/><g id="d"><use transform="matrix(0.013020833333333334,0,0,0.013020833333333334,0,0)" xlink:href="#ad"/><use transform="matrix(0.013020833333333334,0,0,0.013020833333333334,14.401041666666668,0)" xlink:href="#ae"/><use transform="matrix(0.013020833333333334,0,0,0.013020833333333334,27.018229166666668,0)" xlink:href="#af"/><use transform="matrix(0.013020833333333334,0,0,0.013020833333333334,41.6015625,0)" xlink:href="#ag"/><use transform="matrix(0.013020833333333334,0,0,0.013020833333333334,45.481770833333336,0)" xlink:href="#ah"/><use transform="matrix(0.013020833333333334,0,0,0.013020833333333334,59.817708333333336,0)" xlink:href="#af"/><use transform="matrix(0.013020833333333334,0,0,0.013020833333333334,74.77864583333334,0)" xlink:href="#X"/></g><path fill="#111" d="M688-137c238 0 323-102 359-325h193c-32 297-228 482-552 482-361 0-569-299-569-680 0-197 8-360 73-497 88-186 257-317 513-319 316-2 509 195 535 488h-193c-31-212-118-330-342-330-272 0-397 224-393 523v141c-3 282 115 517 376 517" id="ai"/><path fill="#111" d="M561-1102c238-4 403 126 403 351v498c0 99 13 178 38 237V0H808c-11-21-19-59-26-114C696-25 593 20 474 20c-199 0-368-130-365-320 4-251 214-359 490-356h180v-85c-1-135-86-212-229-212-115 0-232 67-233 171H131c20-205 206-316 430-320zM294-326c0 117 90 185 207 185 122 0 239-75 278-162v-222H634c-227 0-340 66-340 199" id="aj"/><path fill="#111" d="M494-271l252-811h198L509 167C425 381 299 474 84 421V271c167 16 242-37 283-173l41-110L22-1082h202" id="ak"/><g id="e"><use transform="matrix(0.013020833333333334,0,0,0.013020833333333334,0,0)" xlink:href="#ai"/><use transform="matrix(0.013020833333333334,0,0,0.013020833333333334,17.356770833333336,0)" xlink:href="#L"/><use transform="matrix(0.013020833333333334,0,0,0.013020833333333334,29.9609375,0)" xlink:href="#aj"/><use transform="matrix(0.013020833333333334,0,0,0.013020833333333334,44.25781250000001,0)" xlink:href="#L"/><use transform="matrix(0.013020833333333334,0,0,0.013020833333333334,57.21354166666667,0)" xlink:href="#ak"/><use transform="matrix(0.013020833333333334,0,0,0.013020833333333334,69.66145833333334,0)" xlink:href="#K"/></g><path fill="#111" d="M1065-307C1065-87 885 0 646 0H157v-1082c368 12 869-81 869 297 0 119-78 193-178 228 117 26 217 115 217 250zM648-149c136 1 231-44 231-164 0-108-79-162-238-162H342v326h306zM342-623h239c173 0 260-51 260-152s-82-157-246-157H342v309" id="al"/><path fill="#111" d="M131-151l64-79c72-93 116-233 123-420l17-432h697v931h139v469H986V0H231v318H46l1-469h84zm219 0h497v-760H514l-11 258c-11 215-62 383-153 502" id="am"/><path fill="#111" d="M1027-1082V0H841v-929H473c-17 260-16 659-115 804C293-29 197 9 44 0v-163c96 0 150-27 182-108 63-160 54-573 70-811h731" id="an"/><g id="f"><use transform="matrix(0.013020833333333334,0,0,0.013020833333333334,0,0)" xlink:href="#al"/><use transform="matrix(0.013020833333333334,0,0,0.013020833333333334,15.234375,0)" xlink:href="#O"/><use transform="matrix(0.013020833333333334,0,0,0.013020833333333334,21.705729166666668,0)" xlink:href="#am"/><use transform="matrix(0.013020833333333334,0,0,0.013020833333333334,37.79947916666667,0)" xlink:href="#Q"/><use transform="matrix(0.013020833333333334,0,0,0.013020833333333334,53.19010416666667,0)" xlink:href="#N"/><use transform="matrix(0.013020833333333334,0,0,0.013020833333333334,68.15104166666667,0)" xlink:href="#aj"/><use transform="matrix(0.013020833333333334,0,0,0.013020833333333334,82.65625,0)" xlink:href="#al"/><use transform="matrix(0.013020833333333334,0,0,0.013020833333333334,97.890625,0)" xlink:href="#an"/><use transform="matrix(0.013020833333333334,0,0,0.013020833333333334,113.30729166666667,0)" xlink:href="#R"/><use transform="matrix(0.013020833333333334,0,0,0.013020833333333334,127.43489583333334,0)" xlink:href="#U"/><use transform="matrix(0.013020833333333334,0,0,0.013020833333333334,142.8125,0)" xlink:href="#U"/><use transform="matrix(0.013020833333333334,0,0,0.013020833333333334,158.19010416666666,0)" xlink:href="#P"/></g><path fill="#111" d="M1479 357h-191V0H243v358H51l-1-515h119c131-146 205-409 219-676l32-623h871v1299h190zM388-157h710v-1141H605c-17 288-16 634-87 856-38 117-79 213-130 285" id="ao"/><g id="g"><use transform="matrix(0.013020833333333334,0,0,0.013020833333333334,0,0)" xlink:href="#ao"/><use transform="matrix(0.013020833333333334,0,0,0.013020833333333334,20.052083333333336,0)" xlink:href="#M"/><use transform="matrix(0.013020833333333334,0,0,0.013020833333333334,34.32291666666667,0)" xlink:href="#am"/><use transform="matrix(0.013020833333333334,0,0,0.013020833333333334,50.41666666666667,0)" xlink:href="#aj"/><use transform="matrix(0.013020833333333334,0,0,0.013020833333333334,64.921875,0)" xlink:href="#al"/><use transform="matrix(0.013020833333333334,0,0,0.013020833333333334,80.15625,0)" xlink:href="#aj"/><use transform="matrix(0.013020833333333334,0,0,0.013020833333333334,94.66145833333333,0)" xlink:href="#U"/><use transform="matrix(0.013020833333333334,0,0,0.013020833333333334,110.0390625,0)" xlink:href="#U"/><use transform="matrix(0.013020833333333334,0,0,0.013020833333333334,125.41666666666667,0)" xlink:href="#P"/></g><path fill="#111" d="M840-1082h185V0H840v-789L341 0H156v-1082h185v790" id="ap"/><path fill="#111" d="M503-687l240-395h216L605-547 970 0H756L506-405 256 0H41l365-547-354-535h214" id="aq"/><g id="h"><use transform="matrix(0.013020833333333334,0,0,0.013020833333333334,0,0)" xlink:href="#U"/><use transform="matrix(0.013020833333333334,0,0,0.013020833333333334,15.377604166666668,0)" xlink:href="#M"/><use transform="matrix(0.013020833333333334,0,0,0.013020833333333334,30.5859375,0)" xlink:href="#al"/><use transform="matrix(0.013020833333333334,0,0,0.013020833333333334,45.8203125,0)" xlink:href="#ap"/><use transform="matrix(0.013020833333333334,0,0,0.013020833333333334,61.2109375,0)" xlink:href="#aq"/></g><path fill="#111" d="M156-1082h186v931h498v-931h185v931h129l-18 472H970V0H156v-1082" id="ar"/><path fill="#111" d="M477-461H342V0H156v-1082h186v458h121l364-458h224L623-562 1087 0H852" id="as"/><g id="i"><use transform="matrix(0.013020833333333334,0,0,0.013020833333333334,0,0)" xlink:href="#Q"/><use transform="matrix(0.013020833333333334,0,0,0.013020833333333334,15.390625,0)" xlink:href="#N"/><use transform="matrix(0.013020833333333334,0,0,0.013020833333333334,30.3515625,0)" xlink:href="#aj"/><use transform="matrix(0.013020833333333334,0,0,0.013020833333333334,44.856770833333336,0)" xlink:href="#ar"/><use transform="matrix(0.013020833333333334,0,0,0.013020833333333334,60.65104166666667,0)" xlink:href="#O"/><use transform="matrix(0.013020833333333334,0,0,0.013020833333333334,67.12239583333334,0)" xlink:href="#al"/><use transform="matrix(0.013020833333333334,0,0,0.013020833333333334,82.35677083333334,0)" xlink:href="#U"/><use transform="matrix(0.013020833333333334,0,0,0.013020833333333334,97.73437500000001,0)" xlink:href="#ap"/><use transform="matrix(0.013020833333333334,0,0,0.013020833333333334,113.125,0)" xlink:href="#as"/><use transform="matrix(0.013020833333333334,0,0,0.013020833333333334,127.5260416666667,0)" xlink:href="#O"/><use transform="matrix(0.013020833333333334,0,0,0.013020833333333334,133.99739583333334,0)" xlink:href="#al"/></g><path d="M688-137c238 0 323-102 359-325h193c-32 297-228 482-552 482-361 0-569-299-569-680 0-197 8-360 73-497 88-186 257-317 513-319 316-2 509 195 535 488h-193c-31-212-118-330-342-330-272 0-397 224-393 523v141c-3 282 115 517 376 517" id="at"/><path d="M599-131c141 0 220-65 285-146l113 88C906-50 770 20 589 20 281 21 93-214 93-545c0-223 93-397 233-485 74-48 154-72 240-72 300 2 449 218 445 537v77H278c0 197 129 357 321 357zm227-509c-3-180-88-310-260-310-170 0-264 140-282 310h542" id="au"/><path d="M1024 0H839v-462H342V0H156v-1082h186v469h497v-469h185V0" id="av"/><path d="M104-752c0-211 183-330 408-330h455V0H781v-421H502L247 0H47l272-449c-125-44-215-146-215-303zm411-180c-125-3-224 66-225 182-1 108 86 177 197 177h294v-359H515" id="aw"/><g id="j"><use transform="matrix(0.013020833333333334,0,0,0.013020833333333334,0,0)" xlink:href="#at"/><use transform="matrix(0.013020833333333334,0,0,0.013020833333333334,17.356770833333336,0)" xlink:href="#ac"/><use transform="matrix(0.013020833333333334,0,0,0.013020833333333334,30.169270833333336,0)" xlink:href="#aa"/><use transform="matrix(0.013020833333333334,0,0,0.013020833333333334,45.403645833333336,0)" xlink:href="#Z"/><use transform="matrix(0.013020833333333334,0,0,0.013020833333333334,60.61197916666667,0)" xlink:href="#af"/><use transform="matrix(0.013020833333333334,0,0,0.013020833333333334,75.57291666666667,0)" xlink:href="#au"/><use transform="matrix(0.013020833333333334,0,0,0.013020833333333334,89.70052083333334,0)" xlink:href="#av"/><use transform="matrix(0.013020833333333334,0,0,0.013020833333333334,105.07812500000001,0)" xlink:href="#av"/><use transform="matrix(0.013020833333333334,0,0,0.013020833333333334,120.4557291666667,0)" xlink:href="#aw"/></g><path d="M1027-1082V0H841v-929H473c-17 260-16 659-115 804C293-29 197 9 44 0v-163c96 0 150-27 182-108 63-160 54-573 70-811h731" id="ax"/><path d="M131-151l64-79c72-93 116-233 123-420l17-432h697v931h139v469H986V0H231v318H46l1-469h84zm219 0h497v-760H514l-11 258c-11 215-62 383-153 502" id="ay"/><path d="M341 0H155v-1082h186V0zM41-1265c-68 0-108-42-109-105 0-63 41-106 109-106s110 43 110 106-42 105-110 105zm430 2c-68 0-108-42-109-105 0-62 41-107 109-107s110 44 110 107-42 105-110 105" id="az"/><g id="k"><use transform="matrix(0.013020833333333334,0,0,0.013020833333333334,0,0)" xlink:href="#av"/><use transform="matrix(0.013020833333333334,0,0,0.013020833333333334,15.377604166666668,0)" xlink:href="#X"/><use transform="matrix(0.013020833333333334,0,0,0.013020833333333334,29.8828125,0)" xlink:href="#ad"/><use transform="matrix(0.013020833333333334,0,0,0.013020833333333334,44.28385416666667,0)" xlink:href="#ax"/><use transform="matrix(0.013020833333333334,0,0,0.013020833333333334,59.70052083333335,0)" xlink:href="#X"/><use transform="matrix(0.013020833333333334,0,0,0.013020833333333334,74.20572916666667,0)" xlink:href="#ay"/><use transform="matrix(0.013020833333333334,0,0,0.013020833333333334,90.29947916666667,0)" xlink:href="#av"/><use transform="matrix(0.013020833333333334,0,0,0.013020833333333334,105.67708333333334,0)" xlink:href="#Z"/><use transform="matrix(0.013020833333333334,0,0,0.013020833333333334,120.88541666666667,0)" xlink:href="#az"/></g><path d="M973-380H363L226 0H28l556-1456h168L1309 0h-197zM421-538h495l-248-681" id="aA"/><path d="M341 0H156v-1082h185V0zm-91-1264c-68 0-108-42-109-105 0-62 41-107 109-107s110 44 110 107-42 105-110 105" id="aB"/><path d="M277-555c0 244 77 420 297 424 127 2 249-93 255-210h175C980-127 805 20 574 20 258 20 81-222 92-562c11-319 164-533 481-540 237-5 426 165 431 392H829c-7-133-115-242-256-240-209 4-296 166-296 395" id="aC"/><g id="l"><use transform="matrix(0.013020833333333334,0,0,0.013020833333333334,0,0)" xlink:href="#aA"/><use transform="matrix(0.013020833333333334,0,0,0.013020833333333334,17.395833333333336,0)" xlink:href="#ay"/><use transform="matrix(0.013020833333333334,0,0,0.013020833333333334,33.489583333333336,0)" xlink:href="#Y"/><use transform="matrix(0.013020833333333334,0,0,0.013020833333333334,53.26822916666667,0)" xlink:href="#aB"/><use transform="matrix(0.013020833333333334,0,0,0.013020833333333334,59.739583333333336,0)" xlink:href="#av"/><use transform="matrix(0.013020833333333334,0,0,0.013020833333333334,75.1171875,0)" xlink:href="#aB"/><use transform="matrix(0.013020833333333334,0,0,0.013020833333333334,81.58854166666667,0)" xlink:href="#aC"/><use transform="matrix(0.013020833333333334,0,0,0.013020833333333334,95.546875,0)" xlink:href="#ac"/><use transform="matrix(0.013020833333333334,0,0,0.013020833333333334,108.359375,0)" xlink:href="#af"/><use transform="matrix(0.013020833333333334,0,0,0.013020833333333334,123.3203125,0)" xlink:href="#X"/><use transform="matrix(0.013020833333333334,0,0,0.013020833333333334,137.6171875,0)" xlink:href="#ac"/><use transform="matrix(0.013020833333333334,0,0,0.013020833333333334,149.8828125,0)" xlink:href="#Z"/><use transform="matrix(0.013020833333333334,0,0,0.013020833333333334,165.09114583333334,0)" xlink:href="#af"/></g><g id="m"><use transform="matrix(0.013020833333333334,0,0,0.013020833333333334,0,0)" xlink:href="#aC"/><use transform="matrix(0.013020833333333334,0,0,0.013020833333333334,13.958333333333334,0)" xlink:href="#ab"/><use transform="matrix(0.013020833333333334,0,0,0.013020833333333334,29.348958333333336,0)" xlink:href="#aC"/><use transform="matrix(0.013020833333333334,0,0,0.013020833333333334,43.30729166666667,0)" xlink:href="#ac"/><use transform="matrix(0.013020833333333334,0,0,0.013020833333333334,55.078125,0)" xlink:href="#au"/><use transform="matrix(0.013020833333333334,0,0,0.013020833333333334,69.20572916666667,0)" xlink:href="#Y"/><use transform="matrix(0.013020833333333334,0,0,0.013020833333333334,88.984375,0)" xlink:href="#ab"/></g><path fill="#111" d="M1216-1011c-1 297-202 441-512 441H361V0H169v-1456h537c297-6 510 164 510 445zm-192 2c1-178-126-288-307-289H361v571h345c196 1 318-92 318-282" id="aD"/><path fill="#111" d="M839-929H340V0H154v-1082h685v153" id="aE"/><g id="n"><use transform="matrix(0.013020833333333334,0,0,0.013020833333333334,0,0)" xlink:href="#aD"/><use transform="matrix(0.013020833333333334,0,0,0.013020833333333334,16.653645833333336,0)" xlink:href="#R"/><use transform="matrix(0.013020833333333334,0,0,0.013020833333333334,30.78125,0)" xlink:href="#am"/><use transform="matrix(0.013020833333333334,0,0,0.013020833333333334,46.875,0)" xlink:href="#aj"/><use transform="matrix(0.013020833333333334,0,0,0.013020833333333334,61.380208333333336,0)" xlink:href="#aE"/><use transform="matrix(0.013020833333333334,0,0,0.013020833333333334,72.56510416666667,0)" xlink:href="#ak"/><use transform="matrix(0.013020833333333334,0,0,0.013020833333333334,85.18229166666667,0)" xlink:href="#al"/><use transform="matrix(0.013020833333333334,0,0,0.013020833333333334,100.41666666666667,0)" xlink:href="#aj"/><use transform="matrix(0.013020833333333334,0,0,0.013020833333333334,114.921875,0)" xlink:href="#U"/><use transform="matrix(0.013020833333333334,0,0,0.013020833333333334,130.29947916666666,0)" xlink:href="#U"/><use transform="matrix(0.013020833333333334,0,0,0.013020833333333334,145.67708333333331,0)" xlink:href="#P"/></g><path fill="#111" d="M342-1082v931h396v-931h185v931h395v-931h186V0H156v-1082h186" id="aF"/><g id="o"><use transform="matrix(0.013020833333333334,0,0,0.013020833333333334,0,0)" xlink:href="#S"/><use transform="matrix(0.013020833333333334,0,0,0.013020833333333334,19.778645833333336,0)" xlink:href="#aj"/><use transform="matrix(0.013020833333333334,0,0,0.013020833333333334,34.28385416666667,0)" xlink:href="#N"/><use transform="matrix(0.013020833333333334,0,0,0.013020833333333334,49.24479166666667,0)" xlink:href="#aF"/><use transform="matrix(0.013020833333333334,0,0,0.013020833333333334,70.80729166666667,0)" xlink:href="#N"/><use transform="matrix(0.013020833333333334,0,0,0.013020833333333334,85.625,0)" xlink:href="#ak"/><use transform="matrix(0.013020833333333334,0,0,0.013020833333333334,98.2421875,0)" xlink:href="#L"/><use transform="matrix(0.013020833333333334,0,0,0.013020833333333334,111.0546875,0)" xlink:href="#O"/><use transform="matrix(0.013020833333333334,0,0,0.013020833333333334,117.52604166666667,0)" xlink:href="#al"/></g><g id="p"><use transform="matrix(0.013020833333333334,0,0,0.013020833333333334,0,0)" xlink:href="#L"/><use transform="matrix(0.013020833333333334,0,0,0.013020833333333334,12.604166666666666,0)" xlink:href="#aj"/></g><g id="q"><use transform="matrix(0.013020833333333334,0,0,0.013020833333333334,0,0)" xlink:href="#O"/><use transform="matrix(0.013020833333333334,0,0,0.013020833333333334,6.471354166666667,0)" xlink:href="#U"/><use transform="matrix(0.013020833333333334,0,0,0.013020833333333334,21.848958333333336,0)" xlink:href="#aF"/><use transform="matrix(0.013020833333333334,0,0,0.013020833333333334,43.411458333333336,0)" xlink:href="#ap"/><use transform="matrix(0.013020833333333334,0,0,0.013020833333333334,58.802083333333336,0)" xlink:href="#aq"/></g><g id="r"><use transform="matrix(0.013020833333333334,0,0,0.013020833333333334,0,0)" xlink:href="#K"/><use transform="matrix(0.013020833333333334,0,0,0.013020833333333334,13.958333333333334,0)" xlink:href="#ap"/><use transform="matrix(0.013020833333333334,0,0,0.013020833333333334,29.348958333333336,0)" xlink:href="#K"/><use transform="matrix(0.013020833333333334,0,0,0.013020833333333334,43.30729166666667,0)" xlink:href="#L"/><use transform="matrix(0.013020833333333334,0,0,0.013020833333333334,55.078125,0)" xlink:href="#R"/><use transform="matrix(0.013020833333333334,0,0,0.013020833333333334,69.20572916666667,0)" xlink:href="#S"/><use transform="matrix(0.013020833333333334,0,0,0.013020833333333334,88.984375,0)" xlink:href="#U"/><use transform="matrix(0.013020833333333334,0,0,0.013020833333333334,104.36197916666667,0)" xlink:href="#ap"/><use transform="matrix(0.013020833333333334,0,0,0.013020833333333334,119.75260416666667,0)" xlink:href="#aq"/></g><g id="s"><use transform="matrix(0.013020833333333334,0,0,0.013020833333333334,0,0)" xlink:href="#Q"/><use transform="matrix(0.013020833333333334,0,0,0.013020833333333334,15.390625,0)" xlink:href="#aj"/><use transform="matrix(0.013020833333333334,0,0,0.013020833333333334,29.895833333333336,0)" xlink:href="#N"/><use transform="matrix(0.013020833333333334,0,0,0.013020833333333334,44.856770833333336,0)" xlink:href="#aj"/><use transform="matrix(0.013020833333333334,0,0,0.013020833333333334,59.36197916666667,0)" xlink:href="#S"/><use transform="matrix(0.013020833333333334,0,0,0.013020833333333334,79.140625,0)" xlink:href="#R"/><use transform="matrix(0.013020833333333334,0,0,0.013020833333333334,93.125,0)" xlink:href="#L"/><use transform="matrix(0.013020833333333334,0,0,0.013020833333333334,105.9375,0)" xlink:href="#N"/><use transform="matrix(0.013020833333333334,0,0,0.013020833333333334,120.8984375,0)" xlink:href="#O"/><use transform="matrix(0.013020833333333334,0,0,0.013020833333333334,127.36979166666667,0)" xlink:href="#al"/></g><path fill="#111" d="M754-304c0-133-82-170-224-170H345v-156h201c126-3 189-55 189-156 0-111-96-165-217-165-113 0-228 70-229 171H105c-2-199 201-321 413-321 232 0 402 96 402 314 0 116-77 191-169 231 126 43 189 127 189 252C939-89 749 19 518 19 290 19 86-101 88-320h184c0 113 122 192 246 192 125 0 236-62 236-176" id="aG"/><g id="t"><use transform="matrix(0.013020833333333334,0,0,0.013020833333333334,0,0)" xlink:href="#aD"/><use transform="matrix(0.013020833333333334,0,0,0.013020833333333334,16.653645833333336,0)" xlink:href="#M"/><use transform="matrix(0.013020833333333334,0,0,0.013020833333333334,31.861979166666675,0)" xlink:href="#aG"/><use transform="matrix(0.013020833333333334,0,0,0.013020833333333334,45.40364583333334,0)" xlink:href="#Q"/><use transform="matrix(0.013020833333333334,0,0,0.013020833333333334,60.79427083333335,0)" xlink:href="#M"/><use transform="matrix(0.013020833333333334,0,0,0.013020833333333334,75.06510416666667,0)" xlink:href="#am"/><use transform="matrix(0.013020833333333334,0,0,0.013020833333333334,91.15885416666667,0)" xlink:href="#O"/><use transform="matrix(0.013020833333333334,0,0,0.013020833333333334,97.63020833333334,0)" xlink:href="#an"/></g><g id="u"><use transform="matrix(0.013020833333333334,0,0,0.013020833333333334,0,0)" xlink:href="#al"/><use transform="matrix(0.013020833333333334,0,0,0.013020833333333334,15.234375,0)" xlink:href="#O"/><use transform="matrix(0.013020833333333334,0,0,0.013020833333333334,21.705729166666668,0)" xlink:href="#am"/><use transform="matrix(0.013020833333333334,0,0,0.013020833333333334,37.79947916666667,0)" xlink:href="#Q"/><use transform="matrix(0.013020833333333334,0,0,0.013020833333333334,53.19010416666667,0)" xlink:href="#N"/><use transform="matrix(0.013020833333333334,0,0,0.013020833333333334,68.15104166666667,0)" xlink:href="#aj"/><use transform="matrix(0.013020833333333334,0,0,0.013020833333333334,82.65625,0)" xlink:href="#al"/><use transform="matrix(0.013020833333333334,0,0,0.013020833333333334,97.890625,0)" xlink:href="#an"/><use transform="matrix(0.013020833333333334,0,0,0.013020833333333334,113.30729166666667,0)" xlink:href="#R"/><use transform="matrix(0.013020833333333334,0,0,0.013020833333333334,127.43489583333334,0)" xlink:href="#U"/><use transform="matrix(0.013020833333333334,0,0,0.013020833333333334,142.8125,0)" xlink:href="#V"/></g><g id="v"><use transform="matrix(0.013020833333333334,0,0,0.013020833333333334,0,0)" xlink:href="#Q"/><use transform="matrix(0.013020833333333334,0,0,0.013020833333333334,15.390625,0)" xlink:href="#M"/></g><g id="w"><use transform="matrix(0.013020833333333334,0,0,0.013020833333333334,0,0)" xlink:href="#U"/><use transform="matrix(0.013020833333333334,0,0,0.013020833333333334,15.377604166666668,0)" xlink:href="#aj"/><use transform="matrix(0.013020833333333334,0,0,0.013020833333333334,29.8828125,0)" xlink:href="#Q"/><use transform="matrix(0.013020833333333334,0,0,0.013020833333333334,45.2734375,0)" xlink:href="#N"/><use transform="matrix(0.013020833333333334,0,0,0.013020833333333334,60.234375,0)" xlink:href="#P"/><use transform="matrix(0.013020833333333334,0,0,0.013020833333333334,74.86979166666667,0)" xlink:href="#S"/><use transform="matrix(0.013020833333333334,0,0,0.013020833333333334,94.6484375,0)" xlink:href="#as"/><use transform="matrix(0.013020833333333334,0,0,0.013020833333333334,109.04947916666667,0)" xlink:href="#aj"/><use transform="matrix(0.013020833333333334,0,0,0.013020833333333334,123.5546875,0)" xlink:href="#aq"/></g><path fill="#111" d="M1160-420C1159-145 963 0 674 0H169v-1456h476c294-1 476 112 476 388 0 153-99 253-216 302 146 38 255 167 255 346zM678-157c171 2 289-95 289-261 0-175-95-263-286-263H361v524h317zm250-912c-2-172-104-229-283-229H361v463h290c157 3 278-84 277-234" id="aH"/><path fill="#111" d="M1003-470H873V0H688v-470H558L255 0H21l387-560-350-522h224l279 448h127v-448h185v448h126l281-448h224l-351 523L1540 0h-234" id="aI"/><g id="x"><use transform="matrix(0.013020833333333334,0,0,0.013020833333333334,0,0)" xlink:href="#aH"/><use transform="matrix(0.013020833333333334,0,0,0.013020833333333334,16.6015625,0)" xlink:href="#O"/><use transform="matrix(0.013020833333333334,0,0,0.013020833333333334,23.072916666666668,0)" xlink:href="#am"/><use transform="matrix(0.013020833333333334,0,0,0.013020833333333334,39.16666666666667,0)" xlink:href="#K"/><use transform="matrix(0.013020833333333334,0,0,0.013020833333333334,53.12500000000001,0)" xlink:href="#L"/><use transform="matrix(0.013020833333333334,0,0,0.013020833333333334,64.89583333333334,0)" xlink:href="#R"/><use transform="matrix(0.013020833333333334,0,0,0.013020833333333334,79.02343750000001,0)" xlink:href="#aI"/><use transform="matrix(0.013020833333333334,0,0,0.013020833333333334,99.17968750000001,0)" xlink:href="#R"/><use transform="matrix(0.013020833333333334,0,0,0.013020833333333334,113.3072916666667,0)" xlink:href="#U"/><use transform="matrix(0.013020833333333334,0,0,0.013020833333333334,128.68489583333334,0)" xlink:href="#U"/><use transform="matrix(0.013020833333333334,0,0,0.013020833333333334,144.0625,0)" xlink:href="#P"/></g><g id="y"><use transform="matrix(0.013020833333333334,0,0,0.013020833333333334,0,0)" xlink:href="#al"/><use transform="matrix(0.013020833333333334,0,0,0.013020833333333334,15.234375,0)" xlink:href="#O"/><use transform="matrix(0.013020833333333334,0,0,0.013020833333333334,21.705729166666668,0)" xlink:href="#am"/><use transform="matrix(0.013020833333333334,0,0,0.013020833333333334,37.79947916666667,0)" xlink:href="#Q"/><use transform="matrix(0.013020833333333334,0,0,0.013020833333333334,53.19010416666667,0)" xlink:href="#N"/><use transform="matrix(0.013020833333333334,0,0,0.013020833333333334,68.15104166666667,0)" xlink:href="#aj"/><use transform="matrix(0.013020833333333334,0,0,0.013020833333333334,82.65625,0)" xlink:href="#al"/><use transform="matrix(0.013020833333333334,0,0,0.013020833333333334,97.890625,0)" xlink:href="#an"/><use transform="matrix(0.013020833333333334,0,0,0.013020833333333334,113.30729166666667,0)" xlink:href="#R"/><use transform="matrix(0.013020833333333334,0,0,0.013020833333333334,127.43489583333334,0)" xlink:href="#U"/><use transform="matrix(0.013020833333333334,0,0,0.013020833333333334,142.8125,0)" xlink:href="#V"/></g><path fill="#111" d="M1281 0h-193v-1298H370V0H178v-1456h1103V0" id="aJ"/><path fill="#111" d="M840-1082h185V0H840v-789L341 0H156v-1082h185v790zm-249-245c93 0 150-56 149-149h150c2 164-130 268-299 268s-302-105-300-268h151c0 94 53 149 149 149" id="aK"/><g id="z"><use transform="matrix(0.013020833333333334,0,0,0.013020833333333334,0,0)" xlink:href="#aJ"/><use transform="matrix(0.013020833333333334,0,0,0.013020833333333334,19.0234375,0)" xlink:href="#N"/><use transform="matrix(0.013020833333333334,0,0,0.013020833333333334,33.984375,0)" xlink:href="#ap"/><use transform="matrix(0.013020833333333334,0,0,0.013020833333333334,49.375,0)" xlink:href="#aK"/><use transform="matrix(0.013020833333333334,0,0,0.013020833333333334,64.765625,0)" xlink:href="#M"/><use transform="matrix(0.013020833333333334,0,0,0.013020833333333334,79.97395833333333,0)" xlink:href="#S"/></g><path fill="#111" d="M521-360c-266 2-418-141-418-400v-323h185v329c3 161 81 242 233 242 85 0 169-11 250-32v-538h186V0H771v-392c-81 21-165 32-250 32" id="aL"/><g id="A"><use transform="matrix(0.013020833333333334,0,0,0.013020833333333334,0,0)" xlink:href="#al"/><use transform="matrix(0.013020833333333334,0,0,0.013020833333333334,15.234375,0)" xlink:href="#ap"/><use transform="matrix(0.013020833333333334,0,0,0.013020833333333334,30.625,0)" xlink:href="#am"/><use transform="matrix(0.013020833333333334,0,0,0.013020833333333334,46.71875,0)" xlink:href="#aj"/><use transform="matrix(0.013020833333333334,0,0,0.013020833333333334,61.223958333333336,0)" xlink:href="#aL"/><use transform="matrix(0.013020833333333334,0,0,0.013020833333333334,75.71614583333334,0)" xlink:href="#aj"/></g><g id="B"><use transform="matrix(0.013020833333333334,0,0,0.013020833333333334,0,0)" xlink:href="#Q"/><use transform="matrix(0.013020833333333334,0,0,0.013020833333333334,15.390625,0)" xlink:href="#M"/><use transform="matrix(0.013020833333333334,0,0,0.013020833333333334,30.598958333333336,0)" xlink:href="#K"/><use transform="matrix(0.013020833333333334,0,0,0.013020833333333334,44.55729166666667,0)" xlink:href="#ap"/><use transform="matrix(0.013020833333333334,0,0,0.013020833333333334,59.94791666666667,0)" xlink:href="#an"/><use transform="matrix(0.013020833333333334,0,0,0.013020833333333334,75.36458333333334,0)" xlink:href="#M"/><use transform="matrix(0.013020833333333334,0,0,0.013020833333333334,90.57291666666667,0)" xlink:href="#as"/></g><path fill="#111" d="M290-464c10 194 103 330 294 333 127 2 249-93 255-210h176C991-127 815 17 584 20 267 25 92-222 103-562c10-319 164-534 481-540 237-5 426 165 431 392H839c-6-133-115-242-255-240-188 2-284 144-294 334h404v152H290" id="aM"/><g id="C"><use transform="matrix(0.013020833333333334,0,0,0.013020833333333334,0,0)" xlink:href="#as"/><use transform="matrix(0.013020833333333334,0,0,0.013020833333333334,14.401041666666668,0)" xlink:href="#an"/><use transform="matrix(0.013020833333333334,0,0,0.013020833333333334,29.817708333333336,0)" xlink:href="#O"/><use transform="matrix(0.013020833333333334,0,0,0.013020833333333334,36.2890625,0)" xlink:href="#aM"/><use transform="matrix(0.013020833333333334,0,0,0.013020833333333334,50.625,0)" xlink:href="#U"/><use transform="matrix(0.013020833333333334,0,0,0.013020833333333334,66.00260416666667,0)" xlink:href="#L"/><use transform="matrix(0.013020833333333334,0,0,0.013020833333333334,78.60677083333334,0)" xlink:href="#aj"/><use transform="matrix(0.013020833333333334,0,0,0.013020833333333334,93.11197916666667,0)" xlink:href="#S"/></g><g id="D"><use transform="matrix(0.013020833333333334,0,0,0.013020833333333334,0,0)" xlink:href="#J"/><use transform="matrix(0.013020833333333334,0,0,0.013020833333333334,7.252604166666667,0)" xlink:href="#U"/><use transform="matrix(0.013020833333333334,0,0,0.013020833333333334,22.630208333333336,0)" xlink:href="#al"/><use transform="matrix(0.013020833333333334,0,0,0.013020833333333334,37.864583333333336,0)" xlink:href="#R"/><use transform="matrix(0.013020833333333334,0,0,0.013020833333333334,51.9921875,0)" xlink:href="#U"/><use transform="matrix(0.013020833333333334,0,0,0.013020833333333334,67.36979166666667,0)" xlink:href="#L"/><use transform="matrix(0.013020833333333334,0,0,0.013020833333333334,79.97395833333334,0)" xlink:href="#aj"/><use transform="matrix(0.013020833333333334,0,0,0.013020833333333334,94.47916666666667,0)" xlink:href="#N"/><use transform="matrix(0.013020833333333334,0,0,0.013020833333333334,109.44010416666667,0)" xlink:href="#ap"/><use transform="matrix(0.013020833333333334,0,0,0.013020833333333334,124.83072916666667,0)" xlink:href="#aG"/><use transform="matrix(0.013020833333333334,0,0,0.013020833333333334,138.37239583333334,0)" xlink:href="#aj"/><use transform="matrix(0.013020833333333334,0,0,0.013020833333333334,152.87760416666669,0)" xlink:href="#ar"/><use transform="matrix(0.013020833333333334,0,0,0.013020833333333334,168.67187500000003,0)" xlink:href="#O"/><use transform="matrix(0.013020833333333334,0,0,0.013020833333333334,175.14322916666669,0)" xlink:href="#P"/></g><g id="E"><use transform="matrix(0.013020833333333334,0,0,0.013020833333333334,0,0)" xlink:href="#Q"/><use transform="matrix(0.013020833333333334,0,0,0.013020833333333334,15.390625,0)" xlink:href="#M"/><use transform="matrix(0.013020833333333334,0,0,0.013020833333333334,30.598958333333336,0)" xlink:href="#K"/><use transform="matrix(0.013020833333333334,0,0,0.013020833333333334,44.55729166666667,0)" xlink:href="#ap"/><use transform="matrix(0.013020833333333334,0,0,0.013020833333333334,59.94791666666667,0)" xlink:href="#an"/><use transform="matrix(0.013020833333333334,0,0,0.013020833333333334,75.36458333333334,0)" xlink:href="#M"/><use transform="matrix(0.013020833333333334,0,0,0.013020833333333334,90.57291666666667,0)" xlink:href="#as"/></g><g id="F"><use transform="matrix(0.013020833333333334,0,0,0.013020833333333334,0,0)" xlink:href="#aa"/><use transform="matrix(0.013020833333333334,0,0,0.013020833333333334,15.234375,0)" xlink:href="#aB"/><use transform="matrix(0.013020833333333334,0,0,0.013020833333333334,21.705729166666668,0)" xlink:href="#ay"/><use transform="matrix(0.013020833333333334,0,0,0.013020833333333334,38.059895833333336,0)" xlink:href="#ay"/><use transform="matrix(0.013020833333333334,0,0,0.013020833333333334,54.153645833333336,0)" xlink:href="#aB"/><use transform="matrix(0.013020833333333334,0,0,0.013020833333333334,60.625,0)" xlink:href="#ax"/><use transform="matrix(0.013020833333333334,0,0,0.013020833333333334,76.04166666666667,0)" xlink:href="#au"/><use transform="matrix(0.013020833333333334,0,0,0.013020833333333334,90.16927083333334,0)" xlink:href="#av"/><use transform="matrix(0.013020833333333334,0,0,0.013020833333333334,105.54687500000001,0)" xlink:href="#av"/><use transform="matrix(0.013020833333333334,0,0,0.013020833333333334,120.9244791666667,0)" xlink:href="#aw"/></g><path d="M754-304c0-133-82-170-224-170H345v-156h201c126-3 189-55 189-156 0-111-96-165-217-165-113 0-228 70-229 171H105c-2-199 201-321 413-321 232 0 402 96 402 314 0 116-77 191-169 231 126 43 189 127 189 252C939-89 749 19 518 19 290 19 86-101 88-320h184c0 113 122 192 246 192 125 0 236-62 236-176" id="aN"/><path d="M840-1082h185V0H840v-789L341 0H156v-1082h185v790zm-249-245c93 0 150-56 149-149h150c2 164-130 268-299 268s-302-105-300-268h151c0 94 53 149 149 149" id="aO"/><g id="G"><use transform="matrix(0.013020833333333334,0,0,0.013020833333333334,0,0)" xlink:href="#aA"/><use transform="matrix(0.013020833333333334,0,0,0.013020833333333334,17.395833333333336,0)" xlink:href="#aa"/><use transform="matrix(0.013020833333333334,0,0,0.013020833333333334,32.473958333333336,0)" xlink:href="#ac"/><use transform="matrix(0.013020833333333334,0,0,0.013020833333333334,44.739583333333336,0)" xlink:href="#Z"/><use transform="matrix(0.013020833333333334,0,0,0.013020833333333334,59.94791666666667,0)" xlink:href="#af"/><use transform="matrix(0.013020833333333334,0,0,0.013020833333333334,74.90885416666667,0)" xlink:href="#ab"/><use transform="matrix(0.013020833333333334,0,0,0.013020833333333334,90.29947916666667,0)" xlink:href="#aN"/><use transform="matrix(0.013020833333333334,0,0,0.013020833333333334,103.84114583333334,0)" xlink:href="#Z"/><use transform="matrix(0.013020833333333334,0,0,0.013020833333333334,119.04947916666667,0)" xlink:href="#aa"/><use transform="matrix(0.013020833333333334,0,0,0.013020833333333334,134.28385416666669,0)" xlink:href="#X"/><use transform="matrix(0.013020833333333334,0,0,0.013020833333333334,148.78906250000003,0)" xlink:href="#av"/><use transform="matrix(0.013020833333333334,0,0,0.013020833333333334,164.16666666666669,0)" xlink:href="#ab"/><use transform="matrix(0.013020833333333334,0,0,0.013020833333333334,179.55729166666669,0)" xlink:href="#aO"/></g><path d="M521-360c-266 2-418-141-418-400v-323h185v329c3 161 81 242 233 242 85 0 169-11 250-32v-538h186V0H771v-392c-81 21-165 32-250 32" id="aP"/><g id="H"><use transform="matrix(0.013020833333333334,0,0,0.013020833333333334,0,0)" xlink:href="#ad"/><use transform="matrix(0.013020833333333334,0,0,0.013020833333333334,14.127604166666668,0)" xlink:href="#Z"/><use transform="matrix(0.013020833333333334,0,0,0.013020833333333334,29.3359375,0)" xlink:href="#af"/><use transform="matrix(0.013020833333333334,0,0,0.013020833333333334,44.296875,0)" xlink:href="#ab"/><use transform="matrix(0.013020833333333334,0,0,0.013020833333333334,59.6875,0)" xlink:href="#aC"/><use transform="matrix(0.013020833333333334,0,0,0.013020833333333334,73.64583333333333,0)" xlink:href="#ac"/><use transform="matrix(0.013020833333333334,0,0,0.013020833333333334,86.6015625,0)" xlink:href="#ae"/><use transform="matrix(0.013020833333333334,0,0,0.013020833333333334,99.21875,0)" xlink:href="#aa"/><use transform="matrix(0.013020833333333334,0,0,0.013020833333333334,114.453125,0)" xlink:href="#X"/><use transform="matrix(0.013020833333333334,0,0,0.013020833333333334,128.95833333333334,0)" xlink:href="#aP"/></g><path d="M547-654H370V0H178v-1456h192v642h150l509-642h239L712-750 1309 0h-235" id="aQ"/><g id="I"><use transform="matrix(0.013020833333333334,0,0,0.013020833333333334,0,0)" xlink:href="#aQ"/><use transform="matrix(0.013020833333333334,0,0,0.013020833333333334,16.783854166666668,0)" xlink:href="#Z"/><use transform="matrix(0.013020833333333334,0,0,0.013020833333333334,31.9921875,0)" xlink:href="#af"/><use transform="matrix(0.013020833333333334,0,0,0.013020833333333334,46.953125,0)" xlink:href="#ab"/><use transform="matrix(0.013020833333333334,0,0,0.013020833333333334,62.34375,0)" xlink:href="#aC"/><use transform="matrix(0.013020833333333334,0,0,0.013020833333333334,76.30208333333333,0)" xlink:href="#ac"/><use transform="matrix(0.013020833333333334,0,0,0.013020833333333334,89.2578125,0)" xlink:href="#ae"/><use transform="matrix(0.013020833333333334,0,0,0.013020833333333334,101.875,0)" xlink:href="#aa"/><use transform="matrix(0.013020833333333334,0,0,0.013020833333333334,117.109375,0)" xlink:href="#X"/><use transform="matrix(0.013020833333333334,0,0,0.013020833333333334,131.61458333333334,0)" xlink:href="#aP"/><use transform="matrix(0.013020833333333334,0,0,0.013020833333333334,146.10677083333334,0)" xlink:href="#aB"/></g></defs></g></svg>