<svg xmlns="http://www.w3.org/2000/svg" xmlns:xlink="http://www.w3.org/1999/xlink" xmlns:lucid="lucid" width="2857.79" height="769.45"><g transform="translate(-1191.0180729166661 -1586.8075000000001)" lucid:page-tab-id="0_0"><path d="M1000 1500h3500v1000H1000z" fill="#f2f3f5"/><path d="M3595.78 1935.9h407.8v71.26h-407.8z" fill="none"/><use xlink:href="#a" transform="matrix(1,0,0,1,3615.776406249999,1958.9025000000004) translate(0 25.114583333333336)"/><use xlink:href="#b" transform="matrix(1,0,0,1,3615.776406249999,1958.9025000000004) translate(141.69270833333334 25.114583333333336)"/><use xlink:href="#c" transform="matrix(1,0,0,1,3615.776406249999,1958.9025000000004) translate(273.30729166666663 25.114583333333336)"/><path d="M1704.6 1910.6h279.76v71.25H1704.6z" fill="none"/><use xlink:href="#d" transform="matrix(1,0,0,1,1724.6088020833329,1933.5875000000003) translate(0 25.114583333333336)"/><use xlink:href="#e" transform="matrix(1,0,0,1,1724.6088020833329,1933.5875000000003) translate(134.765625 25.114583333333336)"/><path d="M2141.86 2098.16h-.1l-2.5.16-2.4.25-2.33.35-2.28.43-2.23.52-2.2.62-2.16.7-2.15.8-2.13.9-2.14 1-2.16 1.13-2.18 1.26-2.22 1.4-2.27 1.56-2.3 1.77-2.4 2-2.52 2.25-2.64 2.58-2.8 3-3.02 3.5-3.32 4.2-3.75 5.16-4.44 6.7-5.8 9.62-31.9 57.66-4.43 6.7-3.75 5.16-3.32 4.2-3.02 3.5-2.8 2.98-2.64 2.6-2.5 2.25-2.4 1.98-2.34 1.76-2.26 1.57-2.2 1.42-2.2 1.26-2.15 1.13-2.15 1.02-2.14.9-2.14.8-2.17.7-2.2.6-2.23.54-2.28.43-2.35.33-2.4.26-2.5.14h-.1" stroke="#d916a8" stroke-width="5" stroke-linejoin="round" fill="none"/><path d="M2144.36 2100.58l-2.52.06-.1-4.95 2.62-.07zM1986.92 2252.47h-2.56v-4.95h2.56z" stroke="#d916a8" stroke-width=".05" fill="#d916a8"/><path d="M1697.12 1708.07H2069v71.26H1697.1z" fill="none"/><use xlink:href="#f" transform="matrix(1,0,0,1,1717.1218229166664,1731.0675) translate(0 25.114583333333336)"/><use xlink:href="#g" transform="matrix(1,0,0,1,1717.1218229166664,1731.0675) translate(152.29166666666666 25.114583333333336)"/><use xlink:href="#h" transform="matrix(1,0,0,1,1717.1218229166664,1731.0675) translate(214.46614583333331 25.114583333333336)"/><path d="M2895.74 1920.95h.1l2.5.16 2.4.27 2.33.34 2.28.44 2.23.53 2.2.6 2.16.7 2.15.8 2.13.9 2.14 1.02 2.16 1.12 2.18 1.26 2.22 1.4 2.26 1.58 2.33 1.76 2.4 2 2.52 2.25 2.64 2.6 2.8 2.97 3.02 3.5 3.32 4.2 3.75 5.17 4.44 6.7 5.8 9.63 31.9 57.66 4.43 6.68 3.75 5.17 3.32 4.2 3.02 3.5 2.8 3 2.64 2.57 2.5 2.26 2.4 2 2.34 1.76 2.26 1.57 2.2 1.4 2.2 1.27 2.15 1.13 2.15 1 2.14.9 2.14.8 2.17.7 2.2.63 2.23.52 2.28.43 2.35.35 2.4.25 2.5.16h.1" stroke="#e81313" stroke-width="5" stroke-linejoin="round" fill="none"/><path d="M2895.86 1918.48l-.1 4.95-2.7-.06.18-2.47-.2-2.48zM3053.24 2070.32v4.95h-2.56v-4.95z" stroke="#e81313" stroke-width=".05" fill="#e81313"/><path d="M1675.18 2011.85h309.18v71.26h-309.18z" fill="none"/><use xlink:href="#a" transform="matrix(1,0,0,1,1695.1817187499994,2034.8475) translate(0 25.114583333333336)"/><use xlink:href="#i" transform="matrix(1,0,0,1,1695.1817187499994,2034.8475) translate(141.69270833333334 25.114583333333336)"/><path d="M1674.08 2214.37h310.28v71.26h-310.28z" fill="none"/><use xlink:href="#j" transform="matrix(1,0,0,1,1694.0749479166664,2237.3675000000003) translate(0 25.114583333333336)"/><use xlink:href="#e" transform="matrix(1,0,0,1,1694.0749479166664,2237.3675000000003) translate(165.29947916666666 25.114583333333336)"/><path d="M3053.24 2037.16h382.54v71.26h-382.54z" fill="none"/><use xlink:href="#k" transform="matrix(1,0,0,1,3073.240364583333,2060.1625000000004) translate(0 25.114583333333336)"/><use xlink:href="#l" transform="matrix(1,0,0,1,3073.240364583333,2060.1625000000004) translate(149.40104166666669 25.114583333333336)"/><path d="M2226.5 1743.75l-1.36.03-3.62.23-3.43.37-3.3.48-3.14.6-3.03.7-2.95.83-2.88.94-2.82 1.05-2.8 1.17-2.77 1.3-2.78 1.46-2.8 1.63-2.86 1.8-2.94 2.05-3.06 2.33-3.23 2.7-3.5 3.14-3.92 3.84-4.64 4.97-6.5 7.55-24.83 30.4-4.65 4.98-3.92 3.84-3.5 3.15-3.24 2.68-3.05 2.32-2.94 2.04-2.86 1.83-2.8 1.62-2.8 1.45-2.77 1.3-2.8 1.2-2.82 1.04-2.87.93-2.94.82-3.03.7-3.15.6-3.28.5-3.43.35-3.63.23-1.35.03" stroke="#635dff" stroke-width="5" stroke-linejoin="round" fill="none"/><path d="M2229 1746.17l-2.52.05-.1-4.94 2.6-.06zM2071.56 1847.43H2069v-4.95h2.56z" stroke="#635dff" stroke-width=".05" fill="#635dff"/><path d="M3482 1769.06l1.34.03 3.62.22 3.44.36 3.27.48 3.15.6 3.03.72 2.95.82 2.88.93 2.82 1.05 2.8 1.18 2.77 1.3 2.8 1.46 2.8 1.62 2.85 1.82 2.94 2.04 3.06 2.32 3.23 2.68 3.5 3.15 3.92 3.84 4.66 4.96 6.5 7.55 24.82 30.42 4.66 4.97 3.92 3.83 3.5 3.15 3.24 2.68 3.06 2.33 2.93 2.03 2.86 1.8 2.82 1.63 2.78 1.46 2.78 1.3 2.8 1.18 2.82 1.05 2.87.94 2.95.8 3.04.72 3.14.6 3.28.5 3.43.35 3.64.22 1.35.02" stroke="#ba23f6" stroke-width="5" stroke-linejoin="round" fill="none"/><path d="M3482.1 1766.6l-.1 4.94-2.5-.05v-4.96zM3639.5 1867.8v4.95h-2.58v-4.95z" stroke="#ba23f6" stroke-width=".05" fill="#ba23f6"/><path d="M1671.57 2250.05l-4.96.1-6.62.42-6 .62-5.5.8-5.1.98-4.8 1.12-4.6 1.3-4.46 1.44-4.44 1.65-4.52 1.9-4.8 2.24-5.4 2.84-7.32 4.24-25.24 15.42-5.42 2.84-4.8 2.26-4.5 1.9-4.45 1.65-4.47 1.44-4.6 1.28-4.8 1.13-5.1.97-5.5.8-6 .64-6.62.4-4.97.12" stroke="#d916a8" stroke-width="5" stroke-linejoin="round" fill="none"/><path d="M1674.08 2252.47l-2.52.06-.1-4.95 2.62-.06zM1516.64 2303.1h-2.57v-4.95h2.57z" stroke="#d916a8" stroke-width=".05" fill="#d916a8"/><path d="M3595.78 2138.42h410.24v71.26h-410.24z" fill="none"/><use xlink:href="#m" transform="matrix(1,0,0,1,3615.776406249999,2161.4224999999997) translate(0 25.114583333333336)"/><use xlink:href="#b" transform="matrix(1,0,0,1,3615.776406249999,2161.4224999999997) translate(144.12760416666669 25.114583333333336)"/><use xlink:href="#c" transform="matrix(1,0,0,1,3615.776406249999,2161.4224999999997) translate(275.7421875 25.114583333333336)"/><path d="M3639.5 1834.64h331.03v71.26H3639.5z" fill="none"/><use xlink:href="#n" transform="matrix(1,0,0,1,3659.487343749999,1857.6425000000002) translate(0 25.114583333333336)"/><use xlink:href="#o" transform="matrix(1,0,0,1,3659.487343749999,1857.6425000000002) translate(186.65364583333334 25.114583333333336)"/><path d="M1231.66 2265h282.4l.02 71.26h-282.42z" fill="none"/><use xlink:href="#p" transform="matrix(1,0,0,1,1251.6560937499992,2287.9975000000004) translate(0 25.114583333333336)"/><use xlink:href="#q" transform="matrix(1,0,0,1,1251.6560937499992,2287.9975000000004) translate(91.35416666666667 25.114583333333336)"/><path d="M1648.32 1809.33H2069v71.26H1648.3z" fill="none"/><use xlink:href="#f" transform="matrix(1,0,0,1,1668.3197395833329,1832.3275) translate(0 25.114583333333336)"/><use xlink:href="#r" transform="matrix(1,0,0,1,1668.3197395833329,1832.3275) translate(152.29166666666666 25.114583333333336)"/><use xlink:href="#h" transform="matrix(1,0,0,1,1668.3197395833329,1832.3275) translate(263.26822916666663 25.114583333333336)"/><path d="M3639.5 1733.38h362.2v71.26h-362.2z" fill="none"/><use xlink:href="#n" transform="matrix(1,0,0,1,3659.487343749999,1756.3825000000002) translate(0 25.114583333333336)"/><use xlink:href="#s" transform="matrix(1,0,0,1,3659.487343749999,1756.3825000000002) translate(186.65364583333334 25.114583333333336)"/><path d="M1211.02 2163.74h303.06V2235h-303.06z" fill="none"/><use xlink:href="#t" transform="matrix(1,0,0,1,1231.0180729166661,2186.7375) translate(0 25.114583333333336)"/><use xlink:href="#u" transform="matrix(1,0,0,1,1231.0180729166661,2186.7375) translate(90.22135416666667 25.114583333333336)"/><path d="M3438.28 2072.84l1.35.03 3.62.23 3.44.36 3.26.48 3.15.6 3.04.72 2.95.82 2.87.93 2.82 1.06 2.8 1.18 2.76 1.3 2.78 1.46 2.8 1.62 2.87 1.82 2.95 2.04 3.06 2.32 3.24 2.68 3.5 3.16 3.92 3.83 4.66 4.97 6.5 7.55 24.82 30.4 4.65 4.97 3.9 3.84 3.5 3.16 3.25 2.68 3.05 2.33 2.94 2.04 2.86 1.82 2.8 1.63 2.8 1.45 2.77 1.3 2.8 1.18 2.82 1.05 2.86.94 2.95.82 3.05.7 3.14.6 3.27.5 3.43.34 3.63.23 1.35.03" stroke="#e81313" stroke-width="5" stroke-linejoin="round" fill="none"/><path d="M3438.4 2070.37l-.1 4.95-2.52-.05v-4.95zM3595.78 2171.58v4.95h-2.57v-4.95z" stroke="#e81313" stroke-width=".05" fill="#e81313"/><path d="M2229 1708.07h234.9v71.26H2229z" fill="none"/><use xlink:href="#v" transform="matrix(1,0,0,1,2248.9938020833324,1731.0675) translate(0 25.114583333333336)"/><path d="M3595.78 2037.16h433.03v71.26H3595.8z" fill="none"/><use xlink:href="#w" transform="matrix(1,0,0,1,3615.776406249999,2060.1625000000004) translate(0 25.114583333333336)"/><use xlink:href="#b" transform="matrix(1,0,0,1,3615.776406249999,2060.1625000000004) translate(166.91406249999997 25.114583333333336)"/><use xlink:href="#c" transform="matrix(1,0,0,1,3615.776406249999,2060.1625000000004) translate(298.52864583333326 25.114583333333336)"/><path d="M2144.36 2062.48h319.54v71.26h-319.54z" fill="none"/><use xlink:href="#x" transform="matrix(1,0,0,1,2164.3583854166664,2085.4775) translate(0 25.114583333333336)"/><use xlink:href="#y" transform="matrix(1,0,0,1,2164.3583854166664,2085.4775) translate(140.09114583333334 25.114583333333336)"/><path d="M1689.14 2113.1h295.22v71.27h-295.22z" fill="none"/><use xlink:href="#z" transform="matrix(1,0,0,1,1709.1400520833329,2136.1075) translate(0 25.114583333333336)"/><use xlink:href="#e" transform="matrix(1,0,0,1,1709.1400520833329,2136.1075) translate(150.234375 25.114583333333336)"/><path d="M2623.9 1920.9a40 40 0 0 1 40-40h189.34a40 40 0 0 1 40 40 40 40 0 0 1-40 40H2663.9a40 40 0 0 1-40-40z" fill="#fff"/><use xlink:href="#A" transform="matrix(1,0,0,1,2623.8996354166666,1880.9025000000004) translate(16.334635416666686 49.114583333333336)"/><use xlink:href="#B" transform="matrix(1,0,0,1,2623.8996354166666,1880.9025000000004) translate(154.70703125 49.114583333333336)"/><path d="M3053.24 1733.38h426.25v71.26h-426.26z" fill="none"/><use xlink:href="#C" transform="matrix(1,0,0,1,3073.240364583333,1756.3825000000002) translate(0 25.114583333333336)"/><use xlink:href="#D" transform="matrix(1,0,0,1,3073.240364583333,1756.3825000000002) translate(200.16927083333334 25.114583333333336)"/><use xlink:href="#E" transform="matrix(1,0,0,1,3073.240364583333,1756.3825000000002) translate(233.88020833333334 25.114583333333336)"/><path d="M3639.5 1632.12h121.55v71.26H3639.5z" fill="none"/><use xlink:href="#F" transform="matrix(1,0,0,1,3659.487343749999,1655.1225000000002) translate(0 25.114583333333336)"/><path d="M1736.5 1606.8H2069v71.27h-332.5z" fill="none"/><use xlink:href="#G" transform="matrix(1,0,0,1,1756.4968229166664,1629.8075000000001) translate(0 25.114583333333336)"/><use xlink:href="#H" transform="matrix(1,0,0,1,1756.4968229166664,1629.8075000000001) translate(159.7265625 25.114583333333336)"/><path d="M3438.28 2072.8h155" stroke="#e81313" stroke-width="5" stroke-linejoin="round" fill="none"/><path d="M3438.34 2075.27h-2.56v-4.95h2.56zM3595.78 2075.27h-2.57v-4.95h2.58z" stroke="#e81313" stroke-width=".05" fill="#e81313"/><path d="M1671.57 2249.95l-4.96-.1-6.62-.42-6-.63-5.5-.8-5.1-.98-4.8-1.13-4.6-1.3-4.46-1.44-4.44-1.65-4.52-1.9-4.8-2.25-5.4-2.84-7.32-4.23-25.24-15.42-5.42-2.84-4.8-2.24-4.5-1.9-4.45-1.65-4.47-1.44-4.6-1.3-4.8-1.1-5.1-1-5.5-.8-6-.62-6.62-.42-4.97-.1" stroke="#d916a8" stroke-width="5" stroke-linejoin="round" fill="none"/><path d="M1674.08 2247.52v4.95l-2.62-.05.1-4.95zM1516.64 2196.9v4.94h-2.57v-4.95z" stroke="#d916a8" stroke-width=".05" fill="#d916a8"/><path d="M2621.4 1920.97l-1.9.1-2.08.24-2.04.3-2 .4-1.97.45-1.94.54-1.93.62-1.92.72-1.9.8-1.94.9-1.95 1.03-1.96 1.14-2 1.28-2.06 1.43-2.12 1.62-2.18 1.8-2.27 2.05-2.38 2.34-2.52 2.7-2.7 3.12-2.9 3.67-3.2 4.4-3.58 5.4-4.18 6.92-5.2 9.5-7.95 16.1-25.33 54.06-5.2 9.5-4.2 6.93-3.58 5.42-3.2 4.4-2.9 3.67-2.7 3.1-2.52 2.7-2.4 2.34-2.26 2.05-2.2 1.8-2.1 1.6-2.05 1.43-2 1.27-1.98 1.14-1.96 1.02-1.93.9-1.9.82-1.93.7-1.93.64-1.95.54-1.98.46-2 .38-2.04.3-2.1.23-1.88.1" stroke="#d916a8" stroke-width="5" stroke-linejoin="round" fill="none"/><path d="M2623.9 1920.9l.2 2.47-2.7.06-.12-4.95 2.8-.06zM2466.46 2100.58h-2.56v-4.95h2.56z" stroke="#d916a8" stroke-width=".05" fill="#d916a8"/><path d="M2141.86 2098.16l-4.96.1-6.64.42-6 .62-5.5.8-5.1 1-4.8 1.1-4.6 1.3-4.46 1.45-4.44 1.65-4.52 1.9-4.8 2.26-5.4 2.83-7.32 4.23-25.24 15.42-5.42 2.84-4.78 2.24-4.53 1.9-4.43 1.66-4.47 1.45-4.6 1.28-4.8 1.13-5.1.97-5.5.8-6 .64-6.63.4-4.96.12" stroke="#d916a8" stroke-width="5" stroke-linejoin="round" fill="none"/><path d="M2144.36 2100.58l-2.52.06-.1-4.95 2.62-.07zM1986.92 2151.2h-2.56v-4.94h2.56z" stroke="#d916a8" stroke-width=".05" fill="#d916a8"/><path d="M2226.5 1743.7h-155" stroke="#635dff" stroke-width="5" stroke-linejoin="round" fill="none"/><path d="M2229 1746.17h-2.57v-4.95h2.56zM2071.56 1746.17H2069v-4.95h2.56z" stroke="#635dff" stroke-width=".05" fill="#635dff"/><path d="M3482 1769h155" stroke="#ba23f6" stroke-width="5" stroke-linejoin="round" fill="none"/><path d="M3482.05 1771.5h-2.56v-4.96h2.55zM3639.5 1771.5h-2.58v-4.96h2.57z" stroke="#ba23f6" stroke-width=".05" fill="#ba23f6"/><path d="M2895.74 1920.85h.1l2.5-.16 2.4-.26 2.33-.35 2.28-.44 2.23-.52 2.2-.62 2.16-.7 2.15-.8 2.13-.9 2.14-1 2.16-1.14 2.18-1.26 2.22-1.4 2.26-1.57 2.33-1.77 2.4-2 2.52-2.25 2.64-2.58 2.8-3 3.02-3.5 3.32-4.2 3.75-5.16 4.44-6.7 5.8-9.63 31.9-57.66 4.43-6.68 3.75-5.17 3.32-4.2 3.02-3.5 2.8-2.98 2.64-2.6 2.5-2.25 2.4-2 2.34-1.75 2.26-1.57 2.2-1.4 2.2-1.27 2.15-1.13 2.15-1 2.14-.9 2.14-.8 2.17-.7 2.2-.62 2.23-.52 2.28-.44 2.35-.34 2.4-.26 2.5-.15h.1" stroke="#ba23f6" stroke-width="5" stroke-linejoin="round" fill="none"/><path d="M2895.86 1923.32l-2.82.06.2-2.48-.2-2.47 2.72-.06zM3053.24 1771.5h-2.56v-4.96h2.56z" stroke="#ba23f6" stroke-width=".05" fill="#ba23f6"/><path d="M2141.86 2098.06l-4.96-.1-6.64-.42-6-.63-5.5-.8-5.1-.97-4.8-1.13-4.6-1.28-4.46-1.45-4.44-1.65-4.52-1.9-4.8-2.26-5.4-2.84-7.32-4.24-25.24-15.42-5.42-2.84-4.78-2.25-4.53-1.9-4.43-1.65-4.47-1.46-4.6-1.28-4.8-1.12-5.1-.98-5.5-.8-6-.63-6.63-.42-4.96-.1" stroke="#d916a8" stroke-width="5" stroke-linejoin="round" fill="none"/><path d="M2144.36 2095.63v4.95l-2.62-.05.1-4.95zM1986.92 2045v4.95h-2.56V2045z" stroke="#d916a8" stroke-width=".05" fill="#d916a8"/><path d="M3482 1768.96l1.34-.03 3.62-.23 3.44-.36 3.27-.48 3.15-.6 3.03-.7 2.95-.83 2.88-.94 2.82-1.06 2.8-1.17 2.77-1.3 2.8-1.46 2.8-1.62 2.85-1.8 2.94-2.05 3.06-2.33 3.23-2.68 3.5-3.15 3.92-3.84 4.66-4.97 6.5-7.55 24.82-30.4 4.66-4.97 3.92-3.84 3.5-3.16 3.24-2.68 3.06-2.32 2.93-2.04 2.86-1.82 2.82-1.62 2.78-1.45 2.78-1.3 2.8-1.18 2.82-1.05 2.87-.93 2.95-.82 3.04-.72 3.14-.6 3.28-.48 3.43-.36 3.64-.23 1.35-.03" stroke="#ba23f6" stroke-width="5" stroke-linejoin="round" fill="none"/><path d="M3482.1 1771.43l-2.6.06v-4.96l2.5-.06zM3639.5 1670.23h-2.58v-4.95h2.57z" stroke="#ba23f6" stroke-width=".05" fill="#ba23f6"/><path d="M3438.28 2072.74l1.35-.03 3.62-.2 3.44-.38 3.26-.48 3.15-.6 3.04-.7 2.95-.83 2.87-.93 2.82-1.05 2.8-1.17 2.76-1.3 2.78-1.47 2.8-1.62 2.87-1.8 2.95-2.05 3.06-2.32 3.24-2.68 3.5-3.15 3.92-3.84 4.66-4.96 6.5-7.55 24.82-30.42 4.65-4.97 3.9-3.83 3.5-3.15 3.25-2.68 3.05-2.32 2.94-2.04 2.86-1.82 2.8-1.62 2.8-1.45 2.77-1.32 2.8-1.18 2.82-1.05 2.86-.93 2.95-.82 3.05-.72 3.14-.6 3.27-.48 3.43-.36 3.63-.23 1.35-.02" stroke="#e81313" stroke-width="5" stroke-linejoin="round" fill="none"/><path d="M3438.4 2075.2l-2.62.07v-4.95l2.5-.06zM3595.78 1974h-2.57v-4.94h2.58z" stroke="#e81313" stroke-width=".05" fill="#e81313"/><path d="M2226.5 1743.65l-1.36-.03-3.62-.23-3.43-.37-3.3-.48-3.14-.6-3.03-.72-2.95-.82-2.88-.92-2.82-1.05-2.8-1.18-2.77-1.3-2.78-1.46-2.8-1.63-2.86-1.82-2.94-2.04-3.06-2.3-3.23-2.7-3.5-3.14-3.92-3.84-4.64-4.97-6.5-7.56-24.83-30.4-4.65-4.98-3.92-3.84-3.5-3.15-3.24-2.68-3.05-2.33-2.94-2.04-2.86-1.8-2.8-1.63-2.8-1.46-2.77-1.32-2.8-1.17-2.82-1.04-2.87-.94-2.94-.82-3.03-.7-3.15-.6-3.28-.5-3.43-.36-3.63-.22-1.35-.03" stroke="#635dff" stroke-width="5" stroke-linejoin="round" fill="none"/><path d="M2229 1741.22v4.95l-2.62-.05.1-4.95zM2071.56 1639.96v4.95H2069v-4.94z" stroke="#635dff" stroke-width=".05" fill="#635dff"/><path d="M2621.4 1920.84l-1.9-.12-2.08-.22-2.04-.3-2-.38-1.97-.46-1.94-.55-1.93-.62-1.92-.7-1.9-.82-1.94-.9-1.95-1.02-1.96-1.14-2-1.28-2.06-1.43-2.12-1.6-2.18-1.82-2.27-2.05-2.38-2.34-2.52-2.7-2.7-3.1-2.9-3.68-3.2-4.4-3.58-5.4-4.18-6.93-5.2-9.53-7.95-16.1-25.33-54.04-5.2-9.52-4.2-6.9-3.58-5.4-3.2-4.42-2.9-3.67-2.7-3.1-2.52-2.7-2.4-2.33-2.26-2.05-2.2-1.8-2.1-1.6-2.05-1.44-2-1.28-1.98-1.14-1.96-1-1.93-.92-1.9-.8-1.93-.73-1.93-.6-1.95-.56-1.98-.46-2-.38-2.04-.3-2.1-.22-1.88-.12" stroke="#635dff" stroke-width="5" stroke-linejoin="round" fill="none"/><path d="M2624.1 1918.43l-.2 2.47.2 2.48-2.82-.06.1-4.94zM2466.46 1741.22v4.95h-2.56v-4.95z" stroke="#635dff" stroke-width=".05" fill="#635dff"/><path d="M2141.86 2098.05h-.1l-2.5-.15-2.4-.26-2.33-.34-2.28-.44-2.23-.52-2.2-.6-2.16-.7-2.15-.8-2.13-.9-2.14-1.02-2.16-1.13-2.18-1.27-2.22-1.4-2.27-1.58-2.3-1.76-2.4-2-2.52-2.26-2.64-2.6-2.8-2.97-3.02-3.5-3.32-4.2-3.75-5.17-4.44-6.7-5.8-9.62-31.9-57.66-4.43-6.7-3.75-5.16-3.32-4.2-3.02-3.5-2.8-3-2.64-2.57-2.5-2.27-2.4-2-2.34-1.76-2.26-1.57-2.2-1.4-2.2-1.26-2.15-1.13-2.15-1-2.14-.9-2.14-.8-2.17-.7-2.2-.62-2.23-.52-2.28-.43-2.35-.35-2.4-.25-2.5-.16h-.1" stroke="#d916a8" stroke-width="5" stroke-linejoin="round" fill="none"/><path d="M2144.36 2095.63v4.95l-2.62-.05.1-4.95zM1986.92 1943.74v4.95h-2.56v-4.96z" stroke="#d916a8" stroke-width=".05" fill="#d916a8"/><path d="M3595.78 1935.9h407.8v71.26h-407.8z" fill="none"/><use xlink:href="#a" transform="matrix(1,0,0,1,3615.776406249999,1958.9025000000004) translate(0 25.114583333333336)"/><use xlink:href="#b" transform="matrix(1,0,0,1,3615.776406249999,1958.9025000000004) translate(141.69270833333334 25.114583333333336)"/><use xlink:href="#c" transform="matrix(1,0,0,1,3615.776406249999,1958.9025000000004) translate(273.30729166666663 25.114583333333336)"/><path d="M1704.6 1910.6h279.76v71.25H1704.6z" fill="none"/><use xlink:href="#d" transform="matrix(1,0,0,1,1724.6088020833329,1933.5875000000003) translate(0 25.114583333333336)"/><use xlink:href="#e" transform="matrix(1,0,0,1,1724.6088020833329,1933.5875000000003) translate(134.765625 25.114583333333336)"/><path d="M2141.86 2098.16h-.1l-2.5.16-2.4.25-2.33.35-2.28.43-2.23.52-2.2.62-2.16.7-2.15.8-2.13.9-2.14 1-2.16 1.13-2.18 1.26-2.22 1.4-2.27 1.56-2.3 1.77-2.4 2-2.52 2.25-2.64 2.58-2.8 3-3.02 3.5-3.32 4.2-3.75 5.16-4.44 6.7-5.8 9.62-31.9 57.66-4.43 6.7-3.75 5.16-3.32 4.2-3.02 3.5-2.8 2.98-2.64 2.6-2.5 2.25-2.4 1.98-2.34 1.76-2.26 1.57-2.2 1.42-2.2 1.26-2.15 1.13-2.15 1.02-2.14.9-2.14.8-2.17.7-2.2.6-2.23.54-2.28.43-2.35.33-2.4.26-2.5.14h-.1" stroke="#d916a8" stroke-width="5" stroke-linejoin="round" fill="none"/><path d="M2144.36 2100.58l-2.52.06-.1-4.95 2.62-.07zM1986.92 2252.47h-2.56v-4.95h2.56z" stroke="#d916a8" stroke-width=".05" fill="#d916a8"/><path d="M1697.12 1708.07H2069v71.26H1697.1z" fill="none"/><use xlink:href="#f" transform="matrix(1,0,0,1,1717.1218229166664,1731.0675) translate(0 25.114583333333336)"/><use xlink:href="#g" transform="matrix(1,0,0,1,1717.1218229166664,1731.0675) translate(152.29166666666666 25.114583333333336)"/><use xlink:href="#h" transform="matrix(1,0,0,1,1717.1218229166664,1731.0675) translate(214.46614583333331 25.114583333333336)"/><path d="M2895.74 1920.95h.1l2.5.16 2.4.27 2.33.34 2.28.44 2.23.53 2.2.6 2.16.7 2.15.8 2.13.9 2.14 1.02 2.16 1.12 2.18 1.26 2.22 1.4 2.26 1.58 2.33 1.76 2.4 2 2.52 2.25 2.64 2.6 2.8 2.97 3.02 3.5 3.32 4.2 3.75 5.17 4.44 6.7 5.8 9.63 31.9 57.66 4.43 6.68 3.75 5.17 3.32 4.2 3.02 3.5 2.8 3 2.64 2.57 2.5 2.26 2.4 2 2.34 1.76 2.26 1.57 2.2 1.4 2.2 1.27 2.15 1.13 2.15 1 2.14.9 2.14.8 2.17.7 2.2.63 2.23.52 2.28.43 2.35.35 2.4.25 2.5.16h.1" stroke="#e81313" stroke-width="5" stroke-linejoin="round" fill="none"/><path d="M2895.86 1918.48l-.1 4.95-2.7-.06.18-2.47-.2-2.48zM3053.24 2070.32v4.95h-2.56v-4.95z" stroke="#e81313" stroke-width=".05" fill="#e81313"/><path d="M1675.18 2011.85h309.18v71.26h-309.18z" fill="none"/><use xlink:href="#a" transform="matrix(1,0,0,1,1695.1817187499994,2034.8475) translate(0 25.114583333333336)"/><use xlink:href="#i" transform="matrix(1,0,0,1,1695.1817187499994,2034.8475) translate(141.69270833333334 25.114583333333336)"/><path d="M1674.08 2214.37h310.28v71.26h-310.28z" fill="none"/><use xlink:href="#j" transform="matrix(1,0,0,1,1694.0749479166664,2237.3675000000003) translate(0 25.114583333333336)"/><use xlink:href="#e" transform="matrix(1,0,0,1,1694.0749479166664,2237.3675000000003) translate(165.29947916666666 25.114583333333336)"/><path d="M3053.24 2037.16h382.54v71.26h-382.54z" fill="none"/><use xlink:href="#k" transform="matrix(1,0,0,1,3073.240364583333,2060.1625000000004) translate(0 25.114583333333336)"/><use xlink:href="#l" transform="matrix(1,0,0,1,3073.240364583333,2060.1625000000004) translate(149.40104166666669 25.114583333333336)"/><path d="M2226.5 1743.75l-1.36.03-3.62.23-3.43.37-3.3.48-3.14.6-3.03.7-2.95.83-2.88.94-2.82 1.05-2.8 1.17-2.77 1.3-2.78 1.46-2.8 1.63-2.86 1.8-2.94 2.05-3.06 2.33-3.23 2.7-3.5 3.14-3.92 3.84-4.64 4.97-6.5 7.55-24.83 30.4-4.65 4.98-3.92 3.84-3.5 3.15-3.24 2.68-3.05 2.32-2.94 2.04-2.86 1.83-2.8 1.62-2.8 1.45-2.77 1.3-2.8 1.2-2.82 1.04-2.87.93-2.94.82-3.03.7-3.15.6-3.28.5-3.43.35-3.63.23-1.35.03" stroke="#635dff" stroke-width="5" stroke-linejoin="round" fill="none"/><path d="M2229 1746.17l-2.52.05-.1-4.94 2.6-.06zM2071.56 1847.43H2069v-4.95h2.56z" stroke="#635dff" stroke-width=".05" fill="#635dff"/><path d="M3482 1769.06l1.34.03 3.62.22 3.44.36 3.27.48 3.15.6 3.03.72 2.95.82 2.88.93 2.82 1.05 2.8 1.18 2.77 1.3 2.8 1.46 2.8 1.62 2.85 1.82 2.94 2.04 3.06 2.32 3.23 2.68 3.5 3.15 3.92 3.84 4.66 4.96 6.5 7.55 24.82 30.42 4.66 4.97 3.92 3.83 3.5 3.15 3.24 2.68 3.06 2.33 2.93 2.03 2.86 1.8 2.82 1.63 2.78 1.46 2.78 1.3 2.8 1.18 2.82 1.05 2.87.94 2.95.8 3.04.72 3.14.6 3.28.5 3.43.35 3.64.22 1.35.02" stroke="#ba23f6" stroke-width="5" stroke-linejoin="round" fill="none"/><path d="M3482.1 1766.6l-.1 4.94-2.5-.05v-4.96zM3639.5 1867.8v4.95h-2.58v-4.95z" stroke="#ba23f6" stroke-width=".05" fill="#ba23f6"/><path d="M1671.57 2250.05l-4.96.1-6.62.42-6 .62-5.5.8-5.1.98-4.8 1.12-4.6 1.3-4.46 1.44-4.44 1.65-4.52 1.9-4.8 2.24-5.4 2.84-7.32 4.24-25.24 15.42-5.42 2.84-4.8 2.26-4.5 1.9-4.45 1.65-4.47 1.44-4.6 1.28-4.8 1.13-5.1.97-5.5.8-6 .64-6.62.4-4.97.12" stroke="#d916a8" stroke-width="5" stroke-linejoin="round" fill="none"/><path d="M1674.08 2252.47l-2.52.06-.1-4.95 2.62-.06zM1516.64 2303.1h-2.57v-4.95h2.57z" stroke="#d916a8" stroke-width=".05" fill="#d916a8"/><path d="M3595.78 2138.42h410.24v71.26h-410.24z" fill="none"/><use xlink:href="#m" transform="matrix(1,0,0,1,3615.776406249999,2161.4224999999997) translate(0 25.114583333333336)"/><use xlink:href="#b" transform="matrix(1,0,0,1,3615.776406249999,2161.4224999999997) translate(144.12760416666669 25.114583333333336)"/><use xlink:href="#c" transform="matrix(1,0,0,1,3615.776406249999,2161.4224999999997) translate(275.7421875 25.114583333333336)"/><path d="M3639.5 1834.64h331.03v71.26H3639.5z" fill="none"/><use xlink:href="#n" transform="matrix(1,0,0,1,3659.487343749999,1857.6425000000002) translate(0 25.114583333333336)"/><use xlink:href="#o" transform="matrix(1,0,0,1,3659.487343749999,1857.6425000000002) translate(186.65364583333334 25.114583333333336)"/><path d="M1231.66 2265h282.4l.02 71.26h-282.42z" fill="none"/><use xlink:href="#p" transform="matrix(1,0,0,1,1251.6560937499992,2287.9975000000004) translate(0 25.114583333333336)"/><use xlink:href="#q" transform="matrix(1,0,0,1,1251.6560937499992,2287.9975000000004) translate(91.35416666666667 25.114583333333336)"/><path d="M1648.32 1809.33H2069v71.26H1648.3z" fill="none"/><use xlink:href="#f" transform="matrix(1,0,0,1,1668.3197395833329,1832.3275) translate(0 25.114583333333336)"/><use xlink:href="#r" transform="matrix(1,0,0,1,1668.3197395833329,1832.3275) translate(152.29166666666666 25.114583333333336)"/><use xlink:href="#h" transform="matrix(1,0,0,1,1668.3197395833329,1832.3275) translate(263.26822916666663 25.114583333333336)"/><path d="M3639.5 1733.38h362.2v71.26h-362.2z" fill="none"/><use xlink:href="#n" transform="matrix(1,0,0,1,3659.487343749999,1756.3825000000002) translate(0 25.114583333333336)"/><use xlink:href="#s" transform="matrix(1,0,0,1,3659.487343749999,1756.3825000000002) translate(186.65364583333334 25.114583333333336)"/><path d="M1211.02 2163.74h303.06V2235h-303.06z" fill="none"/><use xlink:href="#t" transform="matrix(1,0,0,1,1231.0180729166661,2186.7375) translate(0 25.114583333333336)"/><use xlink:href="#u" transform="matrix(1,0,0,1,1231.0180729166661,2186.7375) translate(90.22135416666667 25.114583333333336)"/><path d="M3438.28 2072.84l1.35.03 3.62.23 3.44.36 3.26.48 3.15.6 3.04.72 2.95.82 2.87.93 2.82 1.06 2.8 1.18 2.76 1.3 2.78 1.46 2.8 1.62 2.87 1.82 2.95 2.04 3.06 2.32 3.24 2.68 3.5 3.16 3.92 3.83 4.66 4.97 6.5 7.55 24.82 30.4 4.65 4.97 3.9 3.84 3.5 3.16 3.25 2.68 3.05 2.33 2.94 2.04 2.86 1.82 2.8 1.63 2.8 1.45 2.77 1.3 2.8 1.18 2.82 1.05 2.86.94 2.95.82 3.05.7 3.14.6 3.27.5 3.43.34 3.63.23 1.35.03" stroke="#e81313" stroke-width="5" stroke-linejoin="round" fill="none"/><path d="M3438.4 2070.37l-.1 4.95-2.52-.05v-4.95zM3595.78 2171.58v4.95h-2.57v-4.95z" stroke="#e81313" stroke-width=".05" fill="#e81313"/><path d="M2229 1708.07h234.9v71.26H2229z" fill="none"/><use xlink:href="#v" transform="matrix(1,0,0,1,2248.9938020833324,1731.0675) translate(0 25.114583333333336)"/><path d="M3595.78 2037.16h433.03v71.26H3595.8z" fill="none"/><use xlink:href="#w" transform="matrix(1,0,0,1,3615.776406249999,2060.1625000000004) translate(0 25.114583333333336)"/><use xlink:href="#b" transform="matrix(1,0,0,1,3615.776406249999,2060.1625000000004) translate(166.91406249999997 25.114583333333336)"/><use xlink:href="#c" transform="matrix(1,0,0,1,3615.776406249999,2060.1625000000004) translate(298.52864583333326 25.114583333333336)"/><path d="M2144.36 2062.48h319.54v71.26h-319.54z" fill="none"/><use xlink:href="#x" transform="matrix(1,0,0,1,2164.3583854166664,2085.4775) translate(0 25.114583333333336)"/><use xlink:href="#y" transform="matrix(1,0,0,1,2164.3583854166664,2085.4775) translate(140.09114583333334 25.114583333333336)"/><path d="M1689.14 2113.1h295.22v71.27h-295.22z" fill="none"/><use xlink:href="#z" transform="matrix(1,0,0,1,1709.1400520833329,2136.1075) translate(0 25.114583333333336)"/><use xlink:href="#e" transform="matrix(1,0,0,1,1709.1400520833329,2136.1075) translate(150.234375 25.114583333333336)"/><path d="M2623.9 1920.9a40 40 0 0 1 40-40h189.34a40 40 0 0 1 40 40 40 40 0 0 1-40 40H2663.9a40 40 0 0 1-40-40z" fill="#fff"/><use xlink:href="#A" transform="matrix(1,0,0,1,2623.8996354166666,1880.9025000000004) translate(16.334635416666686 49.114583333333336)"/><use xlink:href="#B" transform="matrix(1,0,0,1,2623.8996354166666,1880.9025000000004) translate(154.70703125 49.114583333333336)"/><path d="M3053.24 1733.38h426.25v71.26h-426.26z" fill="none"/><g><use xlink:href="#C" transform="matrix(1,0,0,1,3073.240364583333,1756.3825000000002) translate(0 25.114583333333336)"/><use xlink:href="#D" transform="matrix(1,0,0,1,3073.240364583333,1756.3825000000002) translate(200.16927083333334 25.114583333333336)"/><use xlink:href="#E" transform="matrix(1,0,0,1,3073.240364583333,1756.3825000000002) translate(233.88020833333334 25.114583333333336)"/></g><path d="M3639.5 1632.12h121.55v71.26H3639.5z" fill="none"/><g><use xlink:href="#F" transform="matrix(1,0,0,1,3659.487343749999,1655.1225000000002) translate(0 25.114583333333336)"/></g><path d="M1736.5 1606.8H2069v71.27h-332.5z" fill="none"/><g><use xlink:href="#G" transform="matrix(1,0,0,1,1756.4968229166664,1629.8075000000001) translate(0 25.114583333333336)"/><use xlink:href="#H" transform="matrix(1,0,0,1,1756.4968229166664,1629.8075000000001) translate(159.7265625 25.114583333333336)"/></g><path d="M3438.28 2072.8h155" stroke="#e81313" stroke-width="5" stroke-linejoin="round" fill="none"/><path d="M3438.34 2075.27h-2.56v-4.95h2.56zM3595.78 2075.27h-2.57v-4.95h2.58z" stroke="#e81313" stroke-width=".05" fill="#e81313"/><path d="M1671.57 2249.95l-4.96-.1-6.62-.42-6-.63-5.5-.8-5.1-.98-4.8-1.13-4.6-1.3-4.46-1.44-4.44-1.65-4.52-1.9-4.8-2.25-5.4-2.84-7.32-4.23-25.24-15.42-5.42-2.84-4.8-2.24-4.5-1.9-4.45-1.65-4.47-1.44-4.6-1.3-4.8-1.1-5.1-1-5.5-.8-6-.62-6.62-.42-4.97-.1" stroke="#d916a8" stroke-width="5" stroke-linejoin="round" fill="none"/><path d="M1674.08 2247.52v4.95l-2.62-.05.1-4.95zM1516.64 2196.9v4.94h-2.57v-4.95z" stroke="#d916a8" stroke-width=".05" fill="#d916a8"/><path d="M2621.4 1920.97l-1.9.1-2.08.24-2.04.3-2 .4-1.97.45-1.94.54-1.93.62-1.92.72-1.9.8-1.94.9-1.95 1.03-1.96 1.14-2 1.28-2.06 1.43-2.12 1.62-2.18 1.8-2.27 2.05-2.38 2.34-2.52 2.7-2.7 3.12-2.9 3.67-3.2 4.4-3.58 5.4-4.18 6.92-5.2 9.5-7.95 16.1-25.33 54.06-5.2 9.5-4.2 6.93-3.58 5.42-3.2 4.4-2.9 3.67-2.7 3.1-2.52 2.7-2.4 2.34-2.26 2.05-2.2 1.8-2.1 1.6-2.05 1.43-2 1.27-1.98 1.14-1.96 1.02-1.93.9-1.9.82-1.93.7-1.93.64-1.95.54-1.98.46-2 .38-2.04.3-2.1.23-1.88.1" stroke="#d916a8" stroke-width="5" stroke-linejoin="round" fill="none"/><path d="M2623.9 1920.9l.2 2.47-2.7.06-.12-4.95 2.8-.06zM2466.46 2100.58h-2.56v-4.95h2.56z" stroke="#d916a8" stroke-width=".05" fill="#d916a8"/><path d="M2141.86 2098.16l-4.96.1-6.64.42-6 .62-5.5.8-5.1 1-4.8 1.1-4.6 1.3-4.46 1.45-4.44 1.65-4.52 1.9-4.8 2.26-5.4 2.83-7.32 4.23-25.24 15.42-5.42 2.84-4.78 2.24-4.53 1.9-4.43 1.66-4.47 1.45-4.6 1.28-4.8 1.13-5.1.97-5.5.8-6 .64-6.63.4-4.96.12" stroke="#d916a8" stroke-width="5" stroke-linejoin="round" fill="none"/><path d="M2144.36 2100.58l-2.52.06-.1-4.95 2.62-.07zM1986.92 2151.2h-2.56v-4.94h2.56z" stroke="#d916a8" stroke-width=".05" fill="#d916a8"/><path d="M2226.5 1743.7h-155" stroke="#635dff" stroke-width="5" stroke-linejoin="round" fill="none"/><path d="M2229 1746.17h-2.57v-4.95h2.56zM2071.56 1746.17H2069v-4.95h2.56z" stroke="#635dff" stroke-width=".05" fill="#635dff"/><path d="M3482 1769h155" stroke="#ba23f6" stroke-width="5" stroke-linejoin="round" fill="none"/><path d="M3482.05 1771.5h-2.56v-4.96h2.55zM3639.5 1771.5h-2.58v-4.96h2.57z" stroke="#ba23f6" stroke-width=".05" fill="#ba23f6"/><path d="M2895.74 1920.85h.1l2.5-.16 2.4-.26 2.33-.35 2.28-.44 2.23-.52 2.2-.62 2.16-.7 2.15-.8 2.13-.9 2.14-1 2.16-1.14 2.18-1.26 2.22-1.4 2.26-1.57 2.33-1.77 2.4-2 2.52-2.25 2.64-2.58 2.8-3 3.02-3.5 3.32-4.2 3.75-5.16 4.44-6.7 5.8-9.63 31.9-57.66 4.43-6.68 3.75-5.17 3.32-4.2 3.02-3.5 2.8-2.98 2.64-2.6 2.5-2.25 2.4-2 2.34-1.75 2.26-1.57 2.2-1.4 2.2-1.27 2.15-1.13 2.15-1 2.14-.9 2.14-.8 2.17-.7 2.2-.62 2.23-.52 2.28-.44 2.35-.34 2.4-.26 2.5-.15h.1" stroke="#ba23f6" stroke-width="5" stroke-linejoin="round" fill="none"/><path d="M2895.86 1923.32l-2.82.06.2-2.48-.2-2.47 2.72-.06zM3053.24 1771.5h-2.56v-4.96h2.56z" stroke="#ba23f6" stroke-width=".05" fill="#ba23f6"/><path d="M2141.86 2098.06l-4.96-.1-6.64-.42-6-.63-5.5-.8-5.1-.97-4.8-1.13-4.6-1.28-4.46-1.45-4.44-1.65-4.52-1.9-4.8-2.26-5.4-2.84-7.32-4.24-25.24-15.42-5.42-2.84-4.78-2.25-4.53-1.9-4.43-1.65-4.47-1.46-4.6-1.28-4.8-1.12-5.1-.98-5.5-.8-6-.63-6.63-.42-4.96-.1" stroke="#d916a8" stroke-width="5" stroke-linejoin="round" fill="none"/><path d="M2144.36 2095.63v4.95l-2.62-.05.1-4.95zM1986.92 2045v4.95h-2.56V2045z" stroke="#d916a8" stroke-width=".05" fill="#d916a8"/><path d="M3482 1768.96l1.34-.03 3.62-.23 3.44-.36 3.27-.48 3.15-.6 3.03-.7 2.95-.83 2.88-.94 2.82-1.06 2.8-1.17 2.77-1.3 2.8-1.46 2.8-1.62 2.85-1.8 2.94-2.05 3.06-2.33 3.23-2.68 3.5-3.15 3.92-3.84 4.66-4.97 6.5-7.55 24.82-30.4 4.66-4.97 3.92-3.84 3.5-3.16 3.24-2.68 3.06-2.32 2.93-2.04 2.86-1.82 2.82-1.62 2.78-1.45 2.78-1.3 2.8-1.18 2.82-1.05 2.87-.93 2.95-.82 3.04-.72 3.14-.6 3.28-.48 3.43-.36 3.64-.23 1.35-.03" stroke="#ba23f6" stroke-width="5" stroke-linejoin="round" fill="none"/><path d="M3482.1 1771.43l-2.6.06v-4.96l2.5-.06zM3639.5 1670.23h-2.58v-4.95h2.57z" stroke="#ba23f6" stroke-width=".05" fill="#ba23f6"/><path d="M3438.28 2072.74l1.35-.03 3.62-.2 3.44-.38 3.26-.48 3.15-.6 3.04-.7 2.95-.83 2.87-.93 2.82-1.05 2.8-1.17 2.76-1.3 2.78-1.47 2.8-1.62 2.87-1.8 2.95-2.05 3.06-2.32 3.24-2.68 3.5-3.15 3.92-3.84 4.66-4.96 6.5-7.55 24.82-30.42 4.65-4.97 3.9-3.83 3.5-3.15 3.25-2.68 3.05-2.32 2.94-2.04 2.86-1.82 2.8-1.62 2.8-1.45 2.77-1.32 2.8-1.18 2.82-1.05 2.86-.93 2.95-.82 3.05-.72 3.14-.6 3.27-.48 3.43-.36 3.63-.23 1.35-.02" stroke="#e81313" stroke-width="5" stroke-linejoin="round" fill="none"/><path d="M3438.4 2075.2l-2.62.07v-4.95l2.5-.06zM3595.78 1974h-2.57v-4.94h2.58z" stroke="#e81313" stroke-width=".05" fill="#e81313"/><path d="M2226.5 1743.65l-1.36-.03-3.62-.23-3.43-.37-3.3-.48-3.14-.6-3.03-.72-2.95-.82-2.88-.92-2.82-1.05-2.8-1.18-2.77-1.3-2.78-1.46-2.8-1.63-2.86-1.82-2.94-2.04-3.06-2.3-3.23-2.7-3.5-3.14-3.92-3.84-4.64-4.97-6.5-7.56-24.83-30.4-4.65-4.98-3.92-3.84-3.5-3.15-3.24-2.68-3.05-2.33-2.94-2.04-2.86-1.8-2.8-1.63-2.8-1.46-2.77-1.32-2.8-1.17-2.82-1.04-2.87-.94-2.94-.82-3.03-.7-3.15-.6-3.28-.5-3.43-.36-3.63-.22-1.35-.03" stroke="#635dff" stroke-width="5" stroke-linejoin="round" fill="none"/><path d="M2229 1741.22v4.95l-2.62-.05.1-4.95zM2071.56 1639.96v4.95H2069v-4.94z" stroke="#635dff" stroke-width=".05" fill="#635dff"/><path d="M2621.4 1920.84l-1.9-.12-2.08-.22-2.04-.3-2-.38-1.97-.46-1.94-.55-1.93-.62-1.92-.7-1.9-.82-1.94-.9-1.95-1.02-1.96-1.14-2-1.28-2.06-1.43-2.12-1.6-2.18-1.82-2.27-2.05-2.38-2.34-2.52-2.7-2.7-3.1-2.9-3.68-3.2-4.4-3.58-5.4-4.18-6.93-5.2-9.53-7.95-16.1-25.33-54.04-5.2-9.52-4.2-6.9-3.58-5.4-3.2-4.42-2.9-3.67-2.7-3.1-2.52-2.7-2.4-2.33-2.26-2.05-2.2-1.8-2.1-1.6-2.05-1.44-2-1.28-1.98-1.14-1.96-1-1.93-.92-1.9-.8-1.93-.73-1.93-.6-1.95-.56-1.98-.46-2-.38-2.04-.3-2.1-.22-1.88-.12" stroke="#635dff" stroke-width="5" stroke-linejoin="round" fill="none"/><path d="M2624.1 1918.43l-.2 2.47.2 2.48-2.82-.06.1-4.94zM2466.46 1741.22v4.95h-2.56v-4.95z" stroke="#635dff" stroke-width=".05" fill="#635dff"/><path d="M2141.86 2098.05h-.1l-2.5-.15-2.4-.26-2.33-.34-2.28-.44-2.23-.52-2.2-.6-2.16-.7-2.15-.8-2.13-.9-2.14-1.02-2.16-1.13-2.18-1.27-2.22-1.4-2.27-1.58-2.3-1.76-2.4-2-2.52-2.26-2.64-2.6-2.8-2.97-3.02-3.5-3.32-4.2-3.75-5.17-4.44-6.7-5.8-9.62-31.9-57.66-4.43-6.7-3.75-5.16-3.32-4.2-3.02-3.5-2.8-3-2.64-2.57-2.5-2.27-2.4-2-2.34-1.76-2.26-1.57-2.2-1.4-2.2-1.26-2.15-1.13-2.15-1-2.14-.9-2.14-.8-2.17-.7-2.2-.62-2.23-.52-2.28-.43-2.35-.35-2.4-.25-2.5-.16h-.1" stroke="#d916a8" stroke-width="5" stroke-linejoin="round" fill="none"/><path d="M2144.36 2095.63v4.95l-2.62-.05.1-4.95zM1986.92 1943.74v4.95h-2.56v-4.96z" stroke="#d916a8" stroke-width=".05" fill="#d916a8"/><defs><path d="M688-137c238 0 323-102 359-325h193c-32 297-228 482-552 482-361 0-569-299-569-680 0-197 8-360 73-497 88-186 257-317 513-319 316-2 509 195 535 488h-193c-31-212-118-330-342-330-272 0-397 224-393 523v141c-3 282 115 517 376 517" id="I"/><path d="M944-932H581V0H396v-932H40v-150h904v150" id="J"/><path d="M1065-307C1065-87 885 0 646 0H157v-1082c368 12 869-81 869 297 0 119-78 193-178 228 117 26 217 115 217 250zM648-149c136 1 231-44 231-164 0-108-79-162-238-162H342v326h306zM342-623h239c173 0 260-51 260-152s-82-157-246-157H342v309" id="K"/><path d="M584 20C278 26 81-227 91-551c10-320 175-545 491-551 308-5 503 247 494 573-9 322-175 543-492 549zm-2-970c-208 0-305 185-305 421 0 216 106 398 307 398 211 0 307-186 307-420 0-214-109-399-309-399" id="L"/><path d="M632-1102c291 0 422 251 422 573 0 297-141 548-419 549-131 0-235-42-310-125v521H140v-1498h169l9 120c75-93 180-140 314-140zm-53 971c207 0 290-180 290-419 0-218-92-395-292-395-112 0-196 50-252 149v517c55 99 140 148 254 148" id="M"/><path d="M599-131c141 0 220-65 285-146l113 88C906-50 770 20 589 20 281 21 93-214 93-545c0-223 93-397 233-485 74-48 154-72 240-72 300 2 449 218 445 537v77H278c0 197 129 357 321 357zm227-509c-3-180-88-310-260-310-170 0-264 140-282 310h542" id="N"/><path d="M1024 0H839v-462H342V0H156v-1082h186v469h497v-469h185V0" id="O"/><path d="M104-752c0-211 183-330 408-330h455V0H781v-421H502L247 0H47l272-449c-125-44-215-146-215-303zm411-180c-125-3-224 66-225 182-1 108 86 177 197 177h294v-359H515" id="P"/><g id="a"><use transform="matrix(0.013020833333333334,0,0,0.013020833333333334,0,0)" xlink:href="#I"/><use transform="matrix(0.013020833333333334,0,0,0.013020833333333334,17.356770833333336,0)" xlink:href="#J"/><use transform="matrix(0.013020833333333334,0,0,0.013020833333333334,30.169270833333336,0)" xlink:href="#K"/><use transform="matrix(0.013020833333333334,0,0,0.013020833333333334,45.403645833333336,0)" xlink:href="#L"/><use transform="matrix(0.013020833333333334,0,0,0.013020833333333334,60.61197916666667,0)" xlink:href="#M"/><use transform="matrix(0.013020833333333334,0,0,0.013020833333333334,75.57291666666667,0)" xlink:href="#N"/><use transform="matrix(0.013020833333333334,0,0,0.013020833333333334,89.70052083333334,0)" xlink:href="#O"/><use transform="matrix(0.013020833333333334,0,0,0.013020833333333334,105.07812500000001,0)" xlink:href="#O"/><use transform="matrix(0.013020833333333334,0,0,0.013020833333333334,120.4557291666667,0)" xlink:href="#P"/></g><path d="M581 20C283 25 97-207 97-516c0-471 123-807 500-877 93-17 156-37 189-61s49-57 49-99h152c-3 181-81 260-237 294-149 32-311 73-386 163-53 64-90 143-107 246 98-113 217-170 358-170 282 0 457 218 449 513-9 313-173 522-483 527zm298-550c0-194-111-339-300-338-196 1-296 150-296 361s101 377 298 377c207 0 298-169 298-400" id="Q"/><path d="M1027-1082V0H841v-929H473c-17 260-16 659-115 804C293-29 197 9 44 0v-163c96 0 150-27 182-108 63-160 54-573 70-811h731" id="R"/><path d="M341 0H156v-1082h185V0zm-91-1264c-68 0-108-42-109-105 0-62 41-107 109-107s110 44 110 107-42 105-110 105" id="S"/><path d="M477-461H342V0H156v-1082h186v458h121l364-458h224L623-562 1087 0H852" id="T"/><path d="M840-1082h185V0H840v-789L341 0H156v-1082h185v790" id="U"/><path d="M503-687l240-395h216L605-547 970 0H756L506-405 256 0H41l365-547-354-535h214" id="V"/><g id="b"><use transform="matrix(0.013020833333333334,0,0,0.013020833333333334,0,0)" xlink:href="#L"/><use transform="matrix(0.013020833333333334,0,0,0.013020833333333334,15.208333333333334,0)" xlink:href="#Q"/><use transform="matrix(0.013020833333333334,0,0,0.013020833333333334,29.947916666666668,0)" xlink:href="#R"/><use transform="matrix(0.013020833333333334,0,0,0.013020833333333334,45.364583333333336,0)" xlink:href="#S"/><use transform="matrix(0.013020833333333334,0,0,0.013020833333333334,51.8359375,0)" xlink:href="#T"/><use transform="matrix(0.013020833333333334,0,0,0.013020833333333334,65.96354166666667,0)" xlink:href="#L"/><use transform="matrix(0.013020833333333334,0,0,0.013020833333333334,81.171875,0)" xlink:href="#K"/><use transform="matrix(0.013020833333333334,0,0,0.013020833333333334,96.40625,0)" xlink:href="#U"/><use transform="matrix(0.013020833333333334,0,0,0.013020833333333334,111.796875,0)" xlink:href="#V"/></g><path d="M754-304c0-133-82-170-224-170H345v-156h201c126-3 189-55 189-156 0-111-96-165-217-165-113 0-228 70-229 171H105c-2-199 201-321 413-321 232 0 402 96 402 314 0 116-77 191-169 231 126 43 189 127 189 252C939-89 749 19 518 19 290 19 86-101 88-320h184c0 113 122 192 246 192 125 0 236-62 236-176" id="W"/><path d="M561-1102c238-4 403 126 403 351v498c0 99 13 178 38 237V0H808c-11-21-19-59-26-114C696-25 593 20 474 20c-199 0-368-130-365-320 4-251 214-359 490-356h180v-85c-1-135-86-212-229-212-115 0-232 67-233 171H131c20-205 206-316 430-320zM294-326c0 117 90 185 207 185 122 0 239-75 278-162v-222H634c-227 0-340 66-340 199" id="X"/><path d="M1025 0H840v-929H342V0H156v-1082h869V0" id="Y"/><path d="M277-555c0 244 77 420 297 424 127 2 249-93 255-210h175C980-127 805 20 574 20 258 20 81-222 92-562c11-319 164-533 481-540 237-5 426 165 431 392H829c-7-133-115-242-256-240-209 4-296 166-296 395" id="Z"/><g id="c"><use transform="matrix(0.013020833333333334,0,0,0.013020833333333334,0,0)" xlink:href="#W"/><use transform="matrix(0.013020833333333334,0,0,0.013020833333333334,13.541666666666668,0)" xlink:href="#X"/><use transform="matrix(0.013020833333333334,0,0,0.013020833333333334,28.046875,0)" xlink:href="#Y"/><use transform="matrix(0.013020833333333334,0,0,0.013020833333333334,43.4375,0)" xlink:href="#U"/><use transform="matrix(0.013020833333333334,0,0,0.013020833333333334,58.828125,0)" xlink:href="#Z"/><use transform="matrix(0.013020833333333334,0,0,0.013020833333333334,72.78645833333333,0)" xlink:href="#S"/><use transform="matrix(0.013020833333333334,0,0,0.013020833333333334,79.2578125,0)" xlink:href="#K"/></g><path d="M1160-420C1159-145 963 0 674 0H169v-1456h476c294-1 476 112 476 388 0 153-99 253-216 302 146 38 255 167 255 346zM678-157c171 2 289-95 289-261 0-175-95-263-286-263H361v524h317zm250-912c-2-172-104-229-283-229H361v463h290c157 3 278-84 277-234" id="aa"/><path d="M131-151l64-79c72-93 116-233 123-420l17-432h697v931h139v469H986V0H231v318H46l1-469h84zm219 0h497v-760H514l-11 258c-11 215-62 383-153 502" id="ab"/><g id="d"><use transform="matrix(0.013020833333333334,0,0,0.013020833333333334,0,0)" xlink:href="#aa"/><use transform="matrix(0.013020833333333334,0,0,0.013020833333333334,16.6015625,0)" xlink:href="#S"/><use transform="matrix(0.013020833333333334,0,0,0.013020833333333334,23.072916666666668,0)" xlink:href="#ab"/><use transform="matrix(0.013020833333333334,0,0,0.013020833333333334,39.16666666666667,0)" xlink:href="#Y"/><use transform="matrix(0.013020833333333334,0,0,0.013020833333333334,54.55729166666667,0)" xlink:href="#M"/><use transform="matrix(0.013020833333333334,0,0,0.013020833333333334,69.51822916666667,0)" xlink:href="#X"/><use transform="matrix(0.013020833333333334,0,0,0.013020833333333334,84.0234375,0)" xlink:href="#K"/><use transform="matrix(0.013020833333333334,0,0,0.013020833333333334,99.2578125,0)" xlink:href="#T"/><use transform="matrix(0.013020833333333334,0,0,0.013020833333333334,113.65885416666667,0)" xlink:href="#X"/></g><g id="e"><use transform="matrix(0.013020833333333334,0,0,0.013020833333333334,0,0)" xlink:href="#Y"/><use transform="matrix(0.013020833333333334,0,0,0.013020833333333334,15.390625,0)" xlink:href="#L"/><use transform="matrix(0.013020833333333334,0,0,0.013020833333333334,30.598958333333336,0)" xlink:href="#Z"/><use transform="matrix(0.013020833333333334,0,0,0.013020833333333334,44.55729166666667,0)" xlink:href="#U"/><use transform="matrix(0.013020833333333334,0,0,0.013020833333333334,59.94791666666667,0)" xlink:href="#R"/><use transform="matrix(0.013020833333333334,0,0,0.013020833333333334,75.36458333333334,0)" xlink:href="#L"/><use transform="matrix(0.013020833333333334,0,0,0.013020833333333334,90.57291666666667,0)" xlink:href="#T"/></g><path d="M1216-1011c-1 297-202 441-512 441H361V0H169v-1456h537c297-6 510 164 510 445zm-192 2c1-178-126-288-307-289H361v571h345c196 1 318-92 318-282" id="ac"/><path d="M494-271l252-811h198L509 167C425 381 299 474 84 421V271c167 16 242-37 283-173l41-110L22-1082h202" id="ad"/><g id="f"><use transform="matrix(0.013020833333333334,0,0,0.013020833333333334,0,0)" xlink:href="#ac"/><use transform="matrix(0.013020833333333334,0,0,0.013020833333333334,16.653645833333336,0)" xlink:href="#L"/><use transform="matrix(0.013020833333333334,0,0,0.013020833333333334,31.861979166666675,0)" xlink:href="#W"/><use transform="matrix(0.013020833333333334,0,0,0.013020833333333334,45.40364583333334,0)" xlink:href="#M"/><use transform="matrix(0.013020833333333334,0,0,0.013020833333333334,60.36458333333335,0)" xlink:href="#X"/><use transform="matrix(0.013020833333333334,0,0,0.013020833333333334,74.86979166666667,0)" xlink:href="#V"/><use transform="matrix(0.013020833333333334,0,0,0.013020833333333334,88.0859375,0)" xlink:href="#ad"/><use transform="matrix(0.013020833333333334,0,0,0.013020833333333334,100.703125,0)" xlink:href="#O"/><use transform="matrix(0.013020833333333334,0,0,0.013020833333333334,116.08072916666667,0)" xlink:href="#L"/><use transform="matrix(0.013020833333333334,0,0,0.013020833333333334,131.2890625,0)" xlink:href="#T"/></g><path d="M521-360c-266 2-418-141-418-400v-323h185v329c3 161 81 242 233 242 85 0 169-11 250-32v-538h186V0H771v-392c-81 21-165 32-250 32" id="ae"/><g id="g"><use transform="matrix(0.013020833333333334,0,0,0.013020833333333334,0,0)" xlink:href="#ae"/><use transform="matrix(0.013020833333333334,0,0,0.013020833333333334,14.4921875,0)" xlink:href="#X"/><use transform="matrix(0.013020833333333334,0,0,0.013020833333333334,28.997395833333336,0)" xlink:href="#Z"/><use transform="matrix(0.013020833333333334,0,0,0.013020833333333334,42.95572916666667,0)" xlink:href="#ad"/></g><g id="h"><use transform="matrix(0.013020833333333334,0,0,0.013020833333333334,0,0)" xlink:href="#ab"/><use transform="matrix(0.013020833333333334,0,0,0.013020833333333334,16.09375,0)" xlink:href="#L"/><use transform="matrix(0.013020833333333334,0,0,0.013020833333333334,31.302083333333336,0)" xlink:href="#Z"/><use transform="matrix(0.013020833333333334,0,0,0.013020833333333334,45.26041666666667,0)" xlink:href="#J"/><use transform="matrix(0.013020833333333334,0,0,0.013020833333333334,57.864583333333336,0)" xlink:href="#X"/><use transform="matrix(0.013020833333333334,0,0,0.013020833333333334,72.36979166666667,0)" xlink:href="#K"/><use transform="matrix(0.013020833333333334,0,0,0.013020833333333334,87.60416666666667,0)" xlink:href="#T"/><use transform="matrix(0.013020833333333334,0,0,0.013020833333333334,102.00520833333334,0)" xlink:href="#U"/></g><path d="M341 0H155v-1082h186V0zM41-1265c-68 0-108-42-109-105 0-63 41-106 109-106s110 43 110 106-42 105-110 105zm430 2c-68 0-108-42-109-105 0-62 41-107 109-107s110 44 110 107-42 105-110 105" id="af"/><g id="i"><use transform="matrix(0.013020833333333334,0,0,0.013020833333333334,0,0)" xlink:href="#O"/><use transform="matrix(0.013020833333333334,0,0,0.013020833333333334,15.377604166666668,0)" xlink:href="#X"/><use transform="matrix(0.013020833333333334,0,0,0.013020833333333334,29.8828125,0)" xlink:href="#T"/><use transform="matrix(0.013020833333333334,0,0,0.013020833333333334,44.28385416666667,0)" xlink:href="#R"/><use transform="matrix(0.013020833333333334,0,0,0.013020833333333334,59.70052083333335,0)" xlink:href="#X"/><use transform="matrix(0.013020833333333334,0,0,0.013020833333333334,74.20572916666667,0)" xlink:href="#ab"/><use transform="matrix(0.013020833333333334,0,0,0.013020833333333334,90.29947916666667,0)" xlink:href="#O"/><use transform="matrix(0.013020833333333334,0,0,0.013020833333333334,105.67708333333334,0)" xlink:href="#L"/><use transform="matrix(0.013020833333333334,0,0,0.013020833333333334,120.88541666666667,0)" xlink:href="#af"/></g><path d="M1003-470H873V0H688v-470H558L255 0H21l387-560-350-522h224l279 448h127v-448h185v448h126l281-448h224l-351 523L1540 0h-234" id="ag"/><g id="j"><use transform="matrix(0.013020833333333334,0,0,0.013020833333333334,0,0)" xlink:href="#aa"/><use transform="matrix(0.013020833333333334,0,0,0.013020833333333334,16.6015625,0)" xlink:href="#S"/><use transform="matrix(0.013020833333333334,0,0,0.013020833333333334,23.072916666666668,0)" xlink:href="#ab"/><use transform="matrix(0.013020833333333334,0,0,0.013020833333333334,39.16666666666667,0)" xlink:href="#Z"/><use transform="matrix(0.013020833333333334,0,0,0.013020833333333334,53.12500000000001,0)" xlink:href="#J"/><use transform="matrix(0.013020833333333334,0,0,0.013020833333333334,64.89583333333334,0)" xlink:href="#N"/><use transform="matrix(0.013020833333333334,0,0,0.013020833333333334,79.02343750000001,0)" xlink:href="#ag"/><use transform="matrix(0.013020833333333334,0,0,0.013020833333333334,99.17968750000001,0)" xlink:href="#N"/><use transform="matrix(0.013020833333333334,0,0,0.013020833333333334,113.3072916666667,0)" xlink:href="#O"/><use transform="matrix(0.013020833333333334,0,0,0.013020833333333334,128.68489583333334,0)" xlink:href="#O"/><use transform="matrix(0.013020833333333334,0,0,0.013020833333333334,144.0625,0)" xlink:href="#P"/></g><path d="M669-611l335-845h223L712-243C651-112 618-60 510-4c-49 25-196 32-253 16l6-152c122 14 200 0 247-97 22-45 43-93 63-141L77-1456h215" id="ah"/><g id="k"><use transform="matrix(0.013020833333333334,0,0,0.013020833333333334,0,0)" xlink:href="#ah"/><use transform="matrix(0.013020833333333334,0,0,0.013020833333333334,15.4296875,0)" xlink:href="#Y"/><use transform="matrix(0.013020833333333334,0,0,0.013020833333333334,30.8203125,0)" xlink:href="#M"/><use transform="matrix(0.013020833333333334,0,0,0.013020833333333334,45.78125,0)" xlink:href="#X"/><use transform="matrix(0.013020833333333334,0,0,0.013020833333333334,60.286458333333336,0)" xlink:href="#K"/><use transform="matrix(0.013020833333333334,0,0,0.013020833333333334,75.52083333333334,0)" xlink:href="#R"/><use transform="matrix(0.013020833333333334,0,0,0.013020833333333334,90.93750000000001,0)" xlink:href="#S"/><use transform="matrix(0.013020833333333334,0,0,0.013020833333333334,97.40885416666669,0)" xlink:href="#O"/><use transform="matrix(0.013020833333333334,0,0,0.013020833333333334,112.78645833333336,0)" xlink:href="#O"/><use transform="matrix(0.013020833333333334,0,0,0.013020833333333334,128.16406250000003,0)" xlink:href="#P"/></g><path d="M763-245l368-837h231V0h-185v-787L827 0H699L342-804V0H157v-1082h240" id="ai"/><g id="l"><use transform="matrix(0.013020833333333334,0,0,0.013020833333333334,0,0)" xlink:href="#T"/><use transform="matrix(0.013020833333333334,0,0,0.013020833333333334,14.127604166666668,0)" xlink:href="#L"/><use transform="matrix(0.013020833333333334,0,0,0.013020833333333334,29.3359375,0)" xlink:href="#M"/><use transform="matrix(0.013020833333333334,0,0,0.013020833333333334,44.296875,0)" xlink:href="#U"/><use transform="matrix(0.013020833333333334,0,0,0.013020833333333334,59.6875,0)" xlink:href="#Z"/><use transform="matrix(0.013020833333333334,0,0,0.013020833333333334,73.64583333333333,0)" xlink:href="#J"/><use transform="matrix(0.013020833333333334,0,0,0.013020833333333334,86.6015625,0)" xlink:href="#ad"/><use transform="matrix(0.013020833333333334,0,0,0.013020833333333334,99.21875,0)" xlink:href="#K"/><use transform="matrix(0.013020833333333334,0,0,0.013020833333333334,114.453125,0)" xlink:href="#X"/><use transform="matrix(0.013020833333333334,0,0,0.013020833333333334,128.95833333333334,0)" xlink:href="#ae"/><use transform="matrix(0.013020833333333334,0,0,0.013020833333333334,143.45052083333334,0)" xlink:href="#X"/><use transform="matrix(0.013020833333333334,0,0,0.013020833333333334,157.95572916666669,0)" xlink:href="#ai"/><use transform="matrix(0.013020833333333334,0,0,0.013020833333333334,177.73437500000003,0)" xlink:href="#U"/></g><g id="m"><use transform="matrix(0.013020833333333334,0,0,0.013020833333333334,0,0)" xlink:href="#aa"/><use transform="matrix(0.013020833333333334,0,0,0.013020833333333334,16.6015625,0)" xlink:href="#U"/><use transform="matrix(0.013020833333333334,0,0,0.013020833333333334,31.9921875,0)" xlink:href="#ab"/><use transform="matrix(0.013020833333333334,0,0,0.013020833333333334,48.0859375,0)" xlink:href="#X"/><use transform="matrix(0.013020833333333334,0,0,0.013020833333333334,62.591145833333336,0)" xlink:href="#R"/><use transform="matrix(0.013020833333333334,0,0,0.013020833333333334,78.0078125,0)" xlink:href="#N"/><use transform="matrix(0.013020833333333334,0,0,0.013020833333333334,92.13541666666667,0)" xlink:href="#O"/><use transform="matrix(0.013020833333333334,0,0,0.013020833333333334,107.51302083333334,0)" xlink:href="#O"/><use transform="matrix(0.013020833333333334,0,0,0.013020833333333334,122.890625,0)" xlink:href="#P"/></g><path d="M973-380H363L226 0H28l556-1456h168L1309 0h-197zM421-538h495l-248-681" id="aj"/><g id="n"><use transform="matrix(0.013020833333333334,0,0,0.013020833333333334,0,0)" xlink:href="#aj"/><use transform="matrix(0.013020833333333334,0,0,0.013020833333333334,17.395833333333336,0)" xlink:href="#ab"/><use transform="matrix(0.013020833333333334,0,0,0.013020833333333334,33.489583333333336,0)" xlink:href="#ai"/><use transform="matrix(0.013020833333333334,0,0,0.013020833333333334,53.26822916666667,0)" xlink:href="#S"/><use transform="matrix(0.013020833333333334,0,0,0.013020833333333334,59.739583333333336,0)" xlink:href="#O"/><use transform="matrix(0.013020833333333334,0,0,0.013020833333333334,75.1171875,0)" xlink:href="#S"/><use transform="matrix(0.013020833333333334,0,0,0.013020833333333334,81.58854166666667,0)" xlink:href="#Z"/><use transform="matrix(0.013020833333333334,0,0,0.013020833333333334,95.546875,0)" xlink:href="#J"/><use transform="matrix(0.013020833333333334,0,0,0.013020833333333334,108.359375,0)" xlink:href="#M"/><use transform="matrix(0.013020833333333334,0,0,0.013020833333333334,123.3203125,0)" xlink:href="#X"/><use transform="matrix(0.013020833333333334,0,0,0.013020833333333334,137.6171875,0)" xlink:href="#J"/><use transform="matrix(0.013020833333333334,0,0,0.013020833333333334,149.8828125,0)" xlink:href="#L"/><use transform="matrix(0.013020833333333334,0,0,0.013020833333333334,165.09114583333334,0)" xlink:href="#M"/></g><g id="o"><use transform="matrix(0.013020833333333334,0,0,0.013020833333333334,0,0)" xlink:href="#Z"/><use transform="matrix(0.013020833333333334,0,0,0.013020833333333334,13.958333333333334,0)" xlink:href="#U"/><use transform="matrix(0.013020833333333334,0,0,0.013020833333333334,29.348958333333336,0)" xlink:href="#Z"/><use transform="matrix(0.013020833333333334,0,0,0.013020833333333334,43.30729166666667,0)" xlink:href="#J"/><use transform="matrix(0.013020833333333334,0,0,0.013020833333333334,55.078125,0)" xlink:href="#N"/><use transform="matrix(0.013020833333333334,0,0,0.013020833333333334,69.20572916666667,0)" xlink:href="#ai"/><use transform="matrix(0.013020833333333334,0,0,0.013020833333333334,88.984375,0)" xlink:href="#U"/></g><path d="M375 0H183v-1456h192V0" id="ak"/><g id="p"><use transform="matrix(0.013020833333333334,0,0,0.013020833333333334,0,0)" xlink:href="#ak"/><use transform="matrix(0.013020833333333334,0,0,0.013020833333333334,7.252604166666667,0)" xlink:href="#Z"/><use transform="matrix(0.013020833333333334,0,0,0.013020833333333334,21.2109375,0)" xlink:href="#J"/><use transform="matrix(0.013020833333333334,0,0,0.013020833333333334,33.4765625,0)" xlink:href="#L"/><use transform="matrix(0.013020833333333334,0,0,0.013020833333333334,48.684895833333336,0)" xlink:href="#M"/><use transform="matrix(0.013020833333333334,0,0,0.013020833333333334,63.645833333333336,0)" xlink:href="#S"/><use transform="matrix(0.013020833333333334,0,0,0.013020833333333334,70.1171875,0)" xlink:href="#P"/></g><path d="M331-1082v931h396v-931h185v931h395v-931h186v931h152l-18 472h-166V0H145v-1082h186" id="al"/><path d="M1021-358C1021-135 848 0 615 0H157v-1082h185v373h281c230-1 398 128 398 351zm-186 7c0-123-84-208-211-207H342v407h275c132 2 218-72 218-200" id="am"/><g id="q"><use transform="matrix(0.013020833333333334,0,0,0.013020833333333334,0,0)" xlink:href="#Y"/><use transform="matrix(0.013020833333333334,0,0,0.013020833333333334,15.390625,0)" xlink:href="#N"/><use transform="matrix(0.013020833333333334,0,0,0.013020833333333334,29.518229166666668,0)" xlink:href="#M"/><use transform="matrix(0.013020833333333334,0,0,0.013020833333333334,44.47916666666667,0)" xlink:href="#N"/><use transform="matrix(0.013020833333333334,0,0,0.013020833333333334,58.60677083333335,0)" xlink:href="#ai"/><use transform="matrix(0.013020833333333334,0,0,0.013020833333333334,78.38541666666669,0)" xlink:href="#S"/><use transform="matrix(0.013020833333333334,0,0,0.013020833333333334,84.85677083333336,0)" xlink:href="#al"/><use transform="matrix(0.013020833333333334,0,0,0.013020833333333334,107.07031250000003,0)" xlink:href="#N"/><use transform="matrix(0.013020833333333334,0,0,0.013020833333333334,121.1979166666667,0)" xlink:href="#O"/><use transform="matrix(0.013020833333333334,0,0,0.013020833333333334,136.57552083333337,0)" xlink:href="#am"/></g><g id="r"><use transform="matrix(0.013020833333333334,0,0,0.013020833333333334,0,0)" xlink:href="#K"/><use transform="matrix(0.013020833333333334,0,0,0.013020833333333334,15.234375,0)" xlink:href="#X"/><use transform="matrix(0.013020833333333334,0,0,0.013020833333333334,29.739583333333336,0)" xlink:href="#M"/><use transform="matrix(0.013020833333333334,0,0,0.013020833333333334,43.65885416666667,0)" xlink:href="#J"/><use transform="matrix(0.013020833333333334,0,0,0.013020833333333334,55.92447916666667,0)" xlink:href="#L"/><use transform="matrix(0.013020833333333334,0,0,0.013020833333333334,71.1328125,0)" xlink:href="#Z"/><use transform="matrix(0.013020833333333334,0,0,0.013020833333333334,85.09114583333333,0)" xlink:href="#J"/><use transform="matrix(0.013020833333333334,0,0,0.013020833333333334,97.90364583333333,0)" xlink:href="#S"/></g><g id="s"><use transform="matrix(0.013020833333333334,0,0,0.013020833333333334,0,0)" xlink:href="#K"/><use transform="matrix(0.013020833333333334,0,0,0.013020833333333334,15.234375,0)" xlink:href="#S"/><use transform="matrix(0.013020833333333334,0,0,0.013020833333333334,21.705729166666668,0)" xlink:href="#ab"/><use transform="matrix(0.013020833333333334,0,0,0.013020833333333334,38.059895833333336,0)" xlink:href="#ab"/><use transform="matrix(0.013020833333333334,0,0,0.013020833333333334,54.153645833333336,0)" xlink:href="#S"/><use transform="matrix(0.013020833333333334,0,0,0.013020833333333334,60.625,0)" xlink:href="#R"/><use transform="matrix(0.013020833333333334,0,0,0.013020833333333334,76.04166666666667,0)" xlink:href="#N"/><use transform="matrix(0.013020833333333334,0,0,0.013020833333333334,90.16927083333334,0)" xlink:href="#O"/><use transform="matrix(0.013020833333333334,0,0,0.013020833333333334,105.54687500000001,0)" xlink:href="#O"/><use transform="matrix(0.013020833333333334,0,0,0.013020833333333334,120.9244791666667,0)" xlink:href="#P"/></g><g id="t"><use transform="matrix(0.013020833333333334,0,0,0.013020833333333334,0,0)" xlink:href="#I"/><use transform="matrix(0.013020833333333334,0,0,0.013020833333333334,17.356770833333336,0)" xlink:href="#J"/><use transform="matrix(0.013020833333333334,0,0,0.013020833333333334,29.9609375,0)" xlink:href="#X"/><use transform="matrix(0.013020833333333334,0,0,0.013020833333333334,44.25781250000001,0)" xlink:href="#J"/><use transform="matrix(0.013020833333333334,0,0,0.013020833333333334,57.21354166666667,0)" xlink:href="#ad"/><use transform="matrix(0.013020833333333334,0,0,0.013020833333333334,69.66145833333334,0)" xlink:href="#Z"/></g><g id="u"><use transform="matrix(0.013020833333333334,0,0,0.013020833333333334,0,0)" xlink:href="#K"/><use transform="matrix(0.013020833333333334,0,0,0.013020833333333334,15.234375,0)" xlink:href="#S"/><use transform="matrix(0.013020833333333334,0,0,0.013020833333333334,21.705729166666668,0)" xlink:href="#ab"/><use transform="matrix(0.013020833333333334,0,0,0.013020833333333334,37.79947916666667,0)" xlink:href="#Y"/><use transform="matrix(0.013020833333333334,0,0,0.013020833333333334,53.19010416666667,0)" xlink:href="#M"/><use transform="matrix(0.013020833333333334,0,0,0.013020833333333334,68.15104166666667,0)" xlink:href="#X"/><use transform="matrix(0.013020833333333334,0,0,0.013020833333333334,82.65625,0)" xlink:href="#K"/><use transform="matrix(0.013020833333333334,0,0,0.013020833333333334,97.890625,0)" xlink:href="#R"/><use transform="matrix(0.013020833333333334,0,0,0.013020833333333334,113.30729166666667,0)" xlink:href="#N"/><use transform="matrix(0.013020833333333334,0,0,0.013020833333333334,127.43489583333334,0)" xlink:href="#O"/><use transform="matrix(0.013020833333333334,0,0,0.013020833333333334,142.8125,0)" xlink:href="#O"/><use transform="matrix(0.013020833333333334,0,0,0.013020833333333334,158.19010416666666,0)" xlink:href="#P"/></g><path d="M417-1456L893-268l476-1188h249V0h-192c-4-403 4-794 18-1179L966 0H819L342-1176c15 384 23 773 19 1176H169v-1456h248" id="an"/><path d="M342-1082v931h396v-931h185v931h395v-931h186V0H156v-1082h186" id="ao"/><path d="M156-1082h186v931h498v-931h185v931h129l-18 472H970V0H156v-1082" id="ap"/><g id="v"><use transform="matrix(0.013020833333333334,0,0,0.013020833333333334,0,0)" xlink:href="#an"/><use transform="matrix(0.013020833333333334,0,0,0.013020833333333334,23.28125,0)" xlink:href="#X"/><use transform="matrix(0.013020833333333334,0,0,0.013020833333333334,37.786458333333336,0)" xlink:href="#M"/><use transform="matrix(0.013020833333333334,0,0,0.013020833333333334,52.747395833333336,0)" xlink:href="#ao"/><use transform="matrix(0.013020833333333334,0,0,0.013020833333333334,74.30989583333334,0)" xlink:href="#M"/><use transform="matrix(0.013020833333333334,0,0,0.013020833333333334,89.12760416666667,0)" xlink:href="#ad"/><use transform="matrix(0.013020833333333334,0,0,0.013020833333333334,101.74479166666667,0)" xlink:href="#J"/><use transform="matrix(0.013020833333333334,0,0,0.013020833333333334,114.55729166666667,0)" xlink:href="#U"/><use transform="matrix(0.013020833333333334,0,0,0.013020833333333334,129.94791666666669,0)" xlink:href="#W"/><use transform="matrix(0.013020833333333334,0,0,0.013020833333333334,143.48958333333334,0)" xlink:href="#X"/><use transform="matrix(0.013020833333333334,0,0,0.013020833333333334,157.99479166666669,0)" xlink:href="#ap"/><use transform="matrix(0.013020833333333334,0,0,0.013020833333333334,173.78906250000003,0)" xlink:href="#S"/><use transform="matrix(0.013020833333333334,0,0,0.013020833333333334,180.26041666666669,0)" xlink:href="#P"/></g><path d="M839-929H340V0H154v-1082h685v153" id="aq"/><g id="w"><use transform="matrix(0.013020833333333334,0,0,0.013020833333333334,0,0)" xlink:href="#ac"/><use transform="matrix(0.013020833333333334,0,0,0.013020833333333334,16.653645833333336,0)" xlink:href="#N"/><use transform="matrix(0.013020833333333334,0,0,0.013020833333333334,30.78125,0)" xlink:href="#ab"/><use transform="matrix(0.013020833333333334,0,0,0.013020833333333334,46.875,0)" xlink:href="#X"/><use transform="matrix(0.013020833333333334,0,0,0.013020833333333334,61.380208333333336,0)" xlink:href="#aq"/><use transform="matrix(0.013020833333333334,0,0,0.013020833333333334,72.56510416666667,0)" xlink:href="#ad"/><use transform="matrix(0.013020833333333334,0,0,0.013020833333333334,85.18229166666667,0)" xlink:href="#K"/><use transform="matrix(0.013020833333333334,0,0,0.013020833333333334,100.41666666666667,0)" xlink:href="#X"/><use transform="matrix(0.013020833333333334,0,0,0.013020833333333334,114.921875,0)" xlink:href="#O"/><use transform="matrix(0.013020833333333334,0,0,0.013020833333333334,130.29947916666666,0)" xlink:href="#O"/><use transform="matrix(0.013020833333333334,0,0,0.013020833333333334,145.67708333333331,0)" xlink:href="#P"/></g><path d="M547-654H370V0H178v-1456h192v642h150l509-642h239L712-750 1309 0h-235" id="ar"/><g id="x"><use transform="matrix(0.013020833333333334,0,0,0.013020833333333334,0,0)" xlink:href="#ar"/><use transform="matrix(0.013020833333333334,0,0,0.013020833333333334,16.796875,0)" xlink:href="#N"/><use transform="matrix(0.013020833333333334,0,0,0.013020833333333334,30.924479166666668,0)" xlink:href="#M"/><use transform="matrix(0.013020833333333334,0,0,0.013020833333333334,45.7421875,0)" xlink:href="#ad"/><use transform="matrix(0.013020833333333334,0,0,0.013020833333333334,58.359375,0)" xlink:href="#K"/><use transform="matrix(0.013020833333333334,0,0,0.013020833333333334,73.59375,0)" xlink:href="#X"/><use transform="matrix(0.013020833333333334,0,0,0.013020833333333334,88.09895833333333,0)" xlink:href="#O"/><use transform="matrix(0.013020833333333334,0,0,0.013020833333333334,103.4765625,0)" xlink:href="#O"/><use transform="matrix(0.013020833333333334,0,0,0.013020833333333334,118.85416666666667,0)" xlink:href="#P"/></g><g id="y"><use transform="matrix(0.013020833333333334,0,0,0.013020833333333334,0,0)" xlink:href="#Y"/><use transform="matrix(0.013020833333333334,0,0,0.013020833333333334,15.390625,0)" xlink:href="#L"/><use transform="matrix(0.013020833333333334,0,0,0.013020833333333334,30.598958333333336,0)" xlink:href="#Z"/><use transform="matrix(0.013020833333333334,0,0,0.013020833333333334,44.55729166666667,0)" xlink:href="#U"/><use transform="matrix(0.013020833333333334,0,0,0.013020833333333334,59.94791666666667,0)" xlink:href="#R"/><use transform="matrix(0.013020833333333334,0,0,0.013020833333333334,75.36458333333334,0)" xlink:href="#T"/><use transform="matrix(0.013020833333333334,0,0,0.013020833333333334,89.76562500000001,0)" xlink:href="#X"/><use transform="matrix(0.013020833333333334,0,0,0.013020833333333334,104.27083333333334,0)" xlink:href="#ai"/><use transform="matrix(0.013020833333333334,0,0,0.013020833333333334,124.0494791666667,0)" xlink:href="#U"/></g><path d="M703-1476c426 0 599 333 586 795-11 408-187 701-584 701-422 0-587-333-587-793 0-282 106-507 280-617 89-56 190-86 305-86zm2 1333c312 0 393-279 393-632 0-308-116-536-395-536-269 0-394 232-394 523v107c-4 298 123 538 396 538" id="as"/><g id="z"><use transform="matrix(0.013020833333333334,0,0,0.013020833333333334,0,0)" xlink:href="#as"/><use transform="matrix(0.013020833333333334,0,0,0.013020833333333334,18.333333333333336,0)" xlink:href="#ab"/><use transform="matrix(0.013020833333333334,0,0,0.013020833333333334,34.427083333333336,0)" xlink:href="#N"/><use transform="matrix(0.013020833333333334,0,0,0.013020833333333334,48.5546875,0)" xlink:href="#M"/><use transform="matrix(0.013020833333333334,0,0,0.013020833333333334,63.3203125,0)" xlink:href="#ag"/><use transform="matrix(0.013020833333333334,0,0,0.013020833333333334,83.73697916666667,0)" xlink:href="#X"/><use transform="matrix(0.013020833333333334,0,0,0.013020833333333334,98.2421875,0)" xlink:href="#O"/><use transform="matrix(0.013020833333333334,0,0,0.013020833333333334,113.61979166666667,0)" xlink:href="#O"/><use transform="matrix(0.013020833333333334,0,0,0.013020833333333334,128.99739583333334,0)" xlink:href="#P"/></g><path d="M1314-1456V0h-301v-1213H625C592-789 641-255 386-70 307-13 184 5 40 0v-241c110-3 172-42 212-135 33-77 54-215 61-412l25-668h976" id="at"/><path d="M579 20C257 20 58-214 66-551c8-331 182-551 511-551 324 0 514 231 514 572 0 319-198 550-512 550zm-2-888c-169 0-222 141-222 338 0 181 61 317 224 317 170 0 223-137 223-338 0-178-64-317-225-317" id="au"/><path d="M848-848H400V0H111v-1082h737v234" id="av"/><path d="M416 0H126v-1082h290V0zM271-1212c-92 0-162-61-162-150s68-149 162-149c93 0 162 60 162 149s-70 150-162 150" id="aw"/><path d="M355-556c-2 203 30 338 206 343 102 3 181-63 182-161h271C1001-128 821 17 566 20 242 24 66-212 66-554c0-320 184-548 498-548 262 0 451 167 450 423H743c-1-108-75-193-184-189-162 6-202 123-204 312" id="ax"/><path d="M1009-850H662V0H372v-850H31v-232h978v232" id="ay"/><path d="M763-1082h289V0H763v-668L401 0H111v-1082h290v667" id="az"/><path d="M377-733c5 136 60 173 206 175 48 0 98-6 151-17v-507h289V0H734v-340c-54 10-104 15-151 15-305 2-495-123-495-408v-349h289v349" id="aA"/><path d="M1049 0H759v-416H400V0H111v-1082h289v434h359v-434h290V0" id="aB"/><g id="A"><use transform="matrix(0.013020833333333334,0,0,0.013020833333333334,0,0)" xlink:href="#at"/><use transform="matrix(0.013020833333333334,0,0,0.013020833333333334,18.828125,0)" xlink:href="#au"/><use transform="matrix(0.013020833333333334,0,0,0.013020833333333334,33.90625,0)" xlink:href="#av"/><use transform="matrix(0.013020833333333334,0,0,0.013020833333333334,45.078125,0)" xlink:href="#aw"/><use transform="matrix(0.013020833333333334,0,0,0.013020833333333334,52.1484375,0)" xlink:href="#ax"/><use transform="matrix(0.013020833333333334,0,0,0.013020833333333334,66.0546875,0)" xlink:href="#ay"/><use transform="matrix(0.013020833333333334,0,0,0.013020833333333334,79.63541666666667,0)" xlink:href="#az"/><use transform="matrix(0.013020833333333334,0,0,0.013020833333333334,94.765625,0)" xlink:href="#aA"/><use transform="matrix(0.013020833333333334,0,0,0.013020833333333334,109.53125,0)" xlink:href="#aB"/><use transform="matrix(0.013020833333333334,0,0,0.013020833333333334,124.66145833333334,0)" xlink:href="#aw"/></g><path d="M1052 0H762v-848H400V0H111v-1082h941V0" id="aC"/><path d="M1052-1082V0H763v-848H508l-18 334c-11 178-46 308-105 389C310-20 196 10 25 0l-3-235c78-1 122-24 150-95 63-164 48-523 65-752h815" id="aD"/><path d="M515-409l200-673h310L590 168c-66 202-236 321-472 250V199c127 7 198-15 230-107l34-89L3-1082h311" id="aE"/><g id="B"><use transform="matrix(0.013020833333333334,0,0,0.013020833333333334,0,0)" xlink:href="#aC"/><use transform="matrix(0.013020833333333334,0,0,0.013020833333333334,15.130208333333334,0)" xlink:href="#au"/><use transform="matrix(0.013020833333333334,0,0,0.013020833333333334,30.208333333333336,0)" xlink:href="#ax"/><use transform="matrix(0.013020833333333334,0,0,0.013020833333333334,44.114583333333336,0)" xlink:href="#aD"/><use transform="matrix(0.013020833333333334,0,0,0.013020833333333334,59.270833333333336,0)" xlink:href="#aE"/><use transform="matrix(0.013020833333333334,0,0,0.013020833333333334,72.65625,0)" xlink:href="#av"/><use transform="matrix(0.013020833333333334,0,0,0.013020833333333334,83.828125,0)" xlink:href="#az"/></g><path d="M491 21c-272-4-391-242-391-542 0-181 37-321 105-426 92-142 264-192 437-126v-463h185v469c47-23 101-35 164-35 123 0 219 52 289 155s105 252 105 447c0 286-126 518-392 521-65 0-120-11-166-32v427H642V-8c-44 19-94 29-151 29zm641-247c88-121 81-487-2-612-68-102-180-137-303-92v783c117 37 241 10 305-79zM285-500c-1 212 64 370 252 370 39 0 74-6 105-18v-785c-118-40-234-9-291 92-42 74-66 186-66 341" id="aF"/><g id="C"><use transform="matrix(0.013020833333333334,0,0,0.013020833333333334,0,0)" xlink:href="#aj"/><use transform="matrix(0.013020833333333334,0,0,0.013020833333333334,17.395833333333336,0)" xlink:href="#K"/><use transform="matrix(0.013020833333333334,0,0,0.013020833333333334,32.473958333333336,0)" xlink:href="#J"/><use transform="matrix(0.013020833333333334,0,0,0.013020833333333334,44.24479166666667,0)" xlink:href="#N"/><use transform="matrix(0.013020833333333334,0,0,0.013020833333333334,58.37239583333335,0)" xlink:href="#O"/><use transform="matrix(0.013020833333333334,0,0,0.013020833333333334,73.75000000000001,0)" xlink:href="#J"/><use transform="matrix(0.013020833333333334,0,0,0.013020833333333334,86.56250000000001,0)" xlink:href="#U"/><use transform="matrix(0.013020833333333334,0,0,0.013020833333333334,101.95312500000001,0)" xlink:href="#aF"/><use transform="matrix(0.013020833333333334,0,0,0.013020833333333334,121.2890625,0)" xlink:href="#S"/><use transform="matrix(0.013020833333333334,0,0,0.013020833333333334,127.7604166666667,0)" xlink:href="#T"/><use transform="matrix(0.013020833333333334,0,0,0.013020833333333334,142.16145833333334,0)" xlink:href="#X"/><use transform="matrix(0.013020833333333334,0,0,0.013020833333333334,156.66666666666669,0)" xlink:href="#ap"/><use transform="matrix(0.013020833333333334,0,0,0.013020833333333334,172.46093750000003,0)" xlink:href="#S"/><use transform="matrix(0.013020833333333334,0,0,0.013020833333333334,178.93229166666669,0)" xlink:href="#P"/></g><g id="D"><use transform="matrix(0.013020833333333334,0,0,0.013020833333333334,0,0)" xlink:href="#J"/><use transform="matrix(0.013020833333333334,0,0,0.013020833333333334,12.604166666666666,0)" xlink:href="#X"/></g><g id="E"><use transform="matrix(0.013020833333333334,0,0,0.013020833333333334,0,0)" xlink:href="#X"/><use transform="matrix(0.013020833333333334,0,0,0.013020833333333334,14.505208333333334,0)" xlink:href="#K"/><use transform="matrix(0.013020833333333334,0,0,0.013020833333333334,29.583333333333336,0)" xlink:href="#J"/><use transform="matrix(0.013020833333333334,0,0,0.013020833333333334,41.848958333333336,0)" xlink:href="#L"/><use transform="matrix(0.013020833333333334,0,0,0.013020833333333334,57.05729166666667,0)" xlink:href="#M"/><use transform="matrix(0.013020833333333334,0,0,0.013020833333333334,72.01822916666667,0)" xlink:href="#U"/><use transform="matrix(0.013020833333333334,0,0,0.013020833333333334,87.40885416666667,0)" xlink:href="#W"/><use transform="matrix(0.013020833333333334,0,0,0.013020833333333334,100.95052083333334,0)" xlink:href="#X"/><use transform="matrix(0.013020833333333334,0,0,0.013020833333333334,115.45572916666667,0)" xlink:href="#ap"/><use transform="matrix(0.013020833333333334,0,0,0.013020833333333334,131.25,0)" xlink:href="#S"/><use transform="matrix(0.013020833333333334,0,0,0.013020833333333334,137.72135416666666,0)" xlink:href="#P"/></g><path d="M290-464c10 194 103 330 294 333 127 2 249-93 255-210h176C991-127 815 17 584 20 267 25 92-222 103-562c10-319 164-534 481-540 237-5 426 165 431 392H839c-6-133-115-242-255-240-188 2-284 144-294 334h404v152H290" id="aG"/><g id="F"><use transform="matrix(0.013020833333333334,0,0,0.013020833333333334,0,0)" xlink:href="#ar"/><use transform="matrix(0.013020833333333334,0,0,0.013020833333333334,17.135416666666668,0)" xlink:href="#R"/><use transform="matrix(0.013020833333333334,0,0,0.013020833333333334,32.552083333333336,0)" xlink:href="#S"/><use transform="matrix(0.013020833333333334,0,0,0.013020833333333334,39.0234375,0)" xlink:href="#aG"/><use transform="matrix(0.013020833333333334,0,0,0.013020833333333334,53.359375,0)" xlink:href="#O"/><use transform="matrix(0.013020833333333334,0,0,0.013020833333333334,68.73697916666667,0)" xlink:href="#J"/></g><g id="G"><use transform="matrix(0.013020833333333334,0,0,0.013020833333333334,0,0)" xlink:href="#as"/><use transform="matrix(0.013020833333333334,0,0,0.013020833333333334,18.333333333333336,0)" xlink:href="#Y"/><use transform="matrix(0.013020833333333334,0,0,0.013020833333333334,33.723958333333336,0)" xlink:href="#J"/><use transform="matrix(0.013020833333333334,0,0,0.013020833333333334,46.536458333333336,0)" xlink:href="#U"/><use transform="matrix(0.013020833333333334,0,0,0.013020833333333334,61.927083333333336,0)" xlink:href="#ai"/><use transform="matrix(0.013020833333333334,0,0,0.013020833333333334,81.70572916666667,0)" xlink:href="#S"/><use transform="matrix(0.013020833333333334,0,0,0.013020833333333334,88.17708333333334,0)" xlink:href="#W"/><use transform="matrix(0.013020833333333334,0,0,0.013020833333333334,101.71875000000001,0)" xlink:href="#X"/><use transform="matrix(0.013020833333333334,0,0,0.013020833333333334,116.22395833333334,0)" xlink:href="#ap"/><use transform="matrix(0.013020833333333334,0,0,0.013020833333333334,132.01822916666669,0)" xlink:href="#S"/><use transform="matrix(0.013020833333333334,0,0,0.013020833333333334,138.48958333333334,0)" xlink:href="#P"/></g><g id="H"><use transform="matrix(0.013020833333333334,0,0,0.013020833333333334,0,0)" xlink:href="#ai"/><use transform="matrix(0.013020833333333334,0,0,0.013020833333333334,19.778645833333336,0)" xlink:href="#X"/><use transform="matrix(0.013020833333333334,0,0,0.013020833333333334,34.28385416666667,0)" xlink:href="#M"/><use transform="matrix(0.013020833333333334,0,0,0.013020833333333334,49.24479166666667,0)" xlink:href="#ao"/><use transform="matrix(0.013020833333333334,0,0,0.013020833333333334,70.80729166666667,0)" xlink:href="#M"/><use transform="matrix(0.013020833333333334,0,0,0.013020833333333334,85.625,0)" xlink:href="#ad"/><use transform="matrix(0.013020833333333334,0,0,0.013020833333333334,98.2421875,0)" xlink:href="#J"/><use transform="matrix(0.013020833333333334,0,0,0.013020833333333334,111.0546875,0)" xlink:href="#S"/><use transform="matrix(0.013020833333333334,0,0,0.013020833333333334,117.52604166666667,0)" xlink:href="#K"/></g></defs></g></svg>